<svg width="71" height="69" viewBox="0 0 71 69" fill="none" xmlns="http://www.w3.org/2000/svg">
<path fill-rule="evenodd" clip-rule="evenodd" d="M53.3193 4.74284C47.8803 1.58095 41.9405 0 35.5 0C29.0595 0 23.1197 1.58095 17.6807 4.74284C12.2416 7.90473 7.93511 12.1948 4.76107 17.613C1.58702 23.0312 0 28.9482 0 35.3641C0 43.0692 2.25727 49.9993 6.77181 56.1543C11.2863 62.3092 17.1183 66.5685 24.2676 68.9323C25.0996 69.0858 25.7159 68.9783 26.1165 68.61C26.5171 68.2416 26.7174 67.7811 26.7174 67.2285C26.7174 67.1058 26.7097 66.2692 26.6943 64.719C26.6789 63.1687 26.6712 61.8104 26.6712 60.6438L25.6081 60.828C24.9301 60.9508 24.075 61.0045 23.0426 60.9892C22.0103 60.9738 20.9395 60.8664 19.8301 60.6669C18.7207 60.4673 17.6884 60.0069 16.7331 59.2854C15.7778 58.564 15.0998 57.6201 14.6992 56.4536L14.237 55.3945C13.9288 54.6884 13.4435 53.9056 12.7809 53.0461C12.1184 52.1865 11.4481 51.6033 10.7702 51.2963L10.4466 51.0661C10.2309 50.9126 10.0306 50.7284 9.8457 50.5135C9.66081 50.2986 9.52214 50.0837 9.42969 49.8688C9.33724 49.654 9.41428 49.4775 9.66081 49.3393C9.90733 49.2012 10.3542 49.1321 11.0013 49.1321L11.9258 49.2702C12.5421 49.393 13.3048 49.7614 14.2139 50.3754C15.1229 50.9893 15.8702 51.7875 16.4557 52.7698C17.1645 54.0284 18.0196 54.9877 19.0212 55.6477C20.0227 56.3077 21.0319 56.6378 22.0488 56.6378C23.0658 56.6378 23.944 56.561 24.6836 56.4075C25.4232 56.254 26.1165 56.0238 26.7637 55.7168C27.0718 53.66 27.8268 52.0791 29.0286 50.974C27.2721 50.7898 25.6928 50.5135 24.2907 50.1451C22.8886 49.7768 21.4402 49.1781 19.9456 48.3493C18.4511 47.5205 17.2107 46.4921 16.2246 45.2642C15.2385 44.0362 14.4296 42.4246 13.7979 40.4292C13.1661 38.4339 12.8503 36.1315 12.8503 33.5222C12.8503 29.8691 14.0675 26.7072 16.502 24.0365C15.3618 21.243 15.485 18.1118 16.8717 14.6429C17.7346 14.3666 19.0443 14.5739 20.8008 15.2646C22.5573 15.9553 23.8439 16.5462 24.6605 17.0374C25.4771 17.5285 26.1319 17.943 26.625 18.2806C29.4909 17.4825 32.4492 17.0834 35.5 17.0834C38.5508 17.0834 41.5091 17.4825 44.375 18.2806L46.1315 17.1755C47.3333 16.4388 48.7509 15.7634 50.3841 15.1494C52.0174 14.5355 53.2654 14.3666 54.1283 14.6429C55.515 18.1118 55.6382 21.243 54.498 24.0365C56.9325 26.7072 58.1497 29.8691 58.1497 33.5222C58.1497 36.1315 57.8339 38.4415 57.2021 40.4522C56.5704 42.463 55.7538 44.0746 54.7523 45.2872C53.7508 46.4997 52.5027 47.5205 51.0081 48.3493C49.5136 49.1781 48.0652 49.7768 46.6631 50.1451C45.261 50.5135 43.6816 50.7898 41.9251 50.974C43.5276 52.3554 44.3288 54.5349 44.3288 57.5126C44.3288 59.3852 44.3211 61.4497 44.3057 63.706C44.2903 65.9623 44.2826 67.1365 44.2826 67.2285C44.2826 67.7811 44.4829 68.2416 44.8835 68.61C45.2841 68.9783 45.9004 69.0858 46.7324 68.9323C53.8817 66.5685 59.7136 62.3092 64.2282 56.1543C68.7427 49.9993 71 43.0692 71 35.3641C71 28.9482 69.413 23.0312 66.2389 17.613C63.0649 12.1948 58.7584 7.90473 53.3193 4.74284ZM13.1276 50.2372C13.4358 50.3907 13.5436 50.5749 13.4512 50.7897C13.3279 51.0353 13.1276 51.066 12.8503 50.8818C12.5421 50.7283 12.4342 50.5442 12.5267 50.3293C12.6191 50.1758 12.8194 50.1451 13.1276 50.2372ZM14.8841 52.3554C15.0998 52.2019 15.069 51.9563 14.7917 51.6187C14.4835 51.3424 14.237 51.2963 14.0521 51.4805C13.8364 51.634 13.8672 51.8796 14.1445 52.2173C14.4527 52.5242 14.6992 52.5703 14.8841 52.3554ZM16.2708 53.5527C16.5482 53.921 16.5482 54.2127 16.2708 54.4275C16.0243 54.6117 15.7623 54.5043 15.485 54.1052C15.2077 53.7061 15.2077 53.4299 15.485 53.2764C15.7623 53.0615 16.0243 53.1536 16.2708 53.5527ZM18.2122 56.3613C18.4588 56.1157 18.3971 55.8241 18.0273 55.4864C17.6575 55.1181 17.3494 55.072 17.1028 55.3483C16.8255 55.5939 16.8871 55.8855 17.2877 56.2232C17.6575 56.5915 17.9657 56.6376 18.2122 56.3613ZM20.2461 56.7759C20.7391 56.9294 20.9394 57.175 20.847 57.5126C20.7237 57.881 20.431 57.9731 19.9687 57.7889C19.4448 57.6661 19.2445 57.4359 19.3678 57.0982C19.4911 56.7605 19.7838 56.6531 20.2461 56.7759ZM23.7592 57.743C23.7592 57.3439 23.4972 57.1751 22.9733 57.2365C22.4803 57.2365 22.2337 57.4053 22.2337 57.743C22.2337 58.142 22.4957 58.3109 23.0196 58.2495C23.5126 58.2495 23.7592 58.0806 23.7592 57.743ZM25.6081 56.868C26.1012 56.8066 26.3785 56.9447 26.4401 57.2824C26.5018 57.5894 26.2861 57.8042 25.793 57.927C25.2999 58.0498 25.0226 57.927 24.961 57.5587C24.8993 57.1903 25.115 56.96 25.6081 56.868Z" fill="white"/>
</svg>
