<svg width="439" height="383" viewBox="0 0 439 383" fill="none" xmlns="http://www.w3.org/2000/svg">
<g clip-path="url(#clip0)">
<path d="M140.314 344.651C136.965 344.74 133.649 343.972 130.68 342.421L3.97755 269.259C1.43139 267.786 0.0413208 265.749 0.0413208 263.505C0.0413208 260.752 2.05073 258.109 5.54654 256.086L247.171 116.549C253.736 112.764 263.686 112.42 269.425 115.641L396.128 188.802C398.66 190.275 400.064 192.312 400.064 194.556C400.064 197.24 398.055 199.952 394.559 201.975L152.88 341.512C149.024 343.603 144.701 344.683 140.314 344.651ZM130.914 341.898C136.419 345.091 146.205 344.651 152.618 340.975L394.27 201.494C397.615 199.58 399.514 197.047 399.514 194.611C399.433 193.485 399.05 192.401 398.406 191.473C397.762 190.545 396.88 189.808 395.853 189.339L269.15 116.164C263.645 112.97 253.86 113.411 247.432 117.086L5.78051 256.568C2.44985 258.495 0.536791 261.014 0.536791 263.45C0.536791 265.488 1.84428 267.36 4.21152 268.722L130.914 341.898Z" fill="#FFE3C1"/>
<path d="M399.789 160.763L381.594 163.887L269.288 99.0674C263.645 95.8188 253.804 96.218 247.267 99.9759L32.4396 224.027L0.27533 229.533V240.944C0.27533 243.023 1.50025 245.005 4.07394 246.45L130.777 319.612C136.406 322.874 146.246 322.461 152.797 318.703L394.408 179.235C397.917 177.212 399.72 174.624 399.775 172.174L399.789 160.763Z" fill="url(#paint0_linear)"/>
<path d="M130.777 308.201L4.07394 235.039C-1.56891 231.777 -0.853233 226.092 5.64293 222.334L247.308 82.7972C253.804 79.0393 263.645 78.6677 269.329 81.8887L396.032 155.05C401.661 158.313 400.959 163.984 394.449 167.742L152.756 307.292C146.246 311.05 136.364 311.449 130.777 308.201Z" fill="#141830"/>
<path d="M394.408 167.742L152.756 307.292C146.246 311.036 136.406 311.422 130.735 308.201L4.03261 235.039C3.08029 234.578 2.24711 233.903 1.59785 233.068C0.948585 232.232 0.500729 231.258 0.289061 230.221C-0.0550154 232.575 1.15613 234.86 4.03261 236.512L130.777 309.673C136.406 312.936 146.246 312.523 152.797 308.765L394.408 169.269C398.303 167.012 400.106 164.08 399.72 161.382C399.39 163.598 397.601 165.911 394.408 167.742Z" fill="white"/>
<path style="mix-blend-mode:lighten" opacity="0.8" d="M140.259 304.718C136.984 304.811 133.739 304.067 130.832 302.557L8.64325 231.983C7.54554 231.471 6.60588 230.673 5.92294 229.673C5.24001 228.673 4.83901 227.507 4.76208 226.298C4.76208 223.655 6.73019 220.999 10.171 219.016L247.336 82.0949C253.736 78.4059 263.452 77.9654 268.999 81.214L391.187 151.788C392.285 152.299 393.225 153.097 393.908 154.098C394.59 155.098 394.991 156.264 395.068 157.473C395.068 160.115 393.1 162.772 389.659 164.754L152.495 301.676C148.739 303.709 144.529 304.755 140.259 304.718ZM131.217 301.868C136.557 304.952 145.93 304.553 152.096 300.987L389.274 164.08C392.453 162.235 394.284 159.826 394.284 157.473C394.203 156.404 393.838 155.377 393.225 154.498C392.613 153.62 391.776 152.921 390.802 152.476L268.613 81.9022C263.273 78.8188 253.901 79.1492 247.735 82.7832L10.5563 219.691C7.37705 221.535 5.54657 223.944 5.54657 226.298C5.62699 227.366 5.99249 228.393 6.60494 229.272C7.2174 230.151 8.05437 230.85 9.02862 231.295L131.217 301.868Z" fill="url(#paint1_linear)"/>
<g opacity="0.1">
<g opacity="0.1">
<path opacity="0.1" d="M265.985 275.715C265.985 260.367 255.222 241.701 241.927 234.02C235.266 230.18 229.238 229.891 224.888 232.355L220.319 235.011L221.695 235.135C219.301 238.067 217.897 242.403 217.897 247.923C217.897 263.271 228.673 281.937 241.968 289.604C246.538 292.247 250.804 293.238 254.438 292.783L254.341 294.008L258.952 291.255L259.131 291.145C263.384 288.599 265.985 283.258 265.985 275.715Z" fill="#BD7B2E"/>
<path opacity="0.1" d="M254.356 293.999C263.756 288.571 263.757 270.972 254.358 254.69C244.959 238.409 229.72 229.61 220.319 235.038C210.919 240.466 210.918 258.065 220.317 274.347C229.716 290.628 244.955 299.427 254.356 293.999Z" fill="#FFE3C1"/>
</g>
</g>
<path opacity="0.4" d="M364.9 163.846C363.852 164.376 362.695 164.652 361.521 164.652C360.347 164.652 359.19 164.376 358.142 163.846C356.284 162.772 356.284 161.024 358.142 159.95C359.19 159.421 360.347 159.145 361.521 159.145C362.695 159.145 363.852 159.421 364.9 159.95C366.758 161.01 366.758 162.772 364.9 163.846Z" fill="#24126A"/>
<path opacity="0.4" d="M339.122 145.057L352.334 152.696C353.958 153.632 353.71 155.257 351.88 156.33C350.928 156.871 349.861 157.177 348.767 157.223C347.673 157.268 346.584 157.052 345.59 156.592L332.364 148.966C330.754 148.03 330.988 146.406 332.818 145.318C333.776 144.788 334.845 144.488 335.939 144.443C337.033 144.397 338.123 144.607 339.122 145.057Z" fill="#24126A"/>
<path opacity="0.4" d="M263.7 99.2738L276.913 106.9C278.537 107.836 278.289 109.46 276.458 110.547C275.503 111.078 274.436 111.378 273.344 111.423C272.253 111.468 271.165 111.258 270.169 110.809L256.942 103.197C255.332 102.261 255.566 100.637 257.397 99.5629C258.35 99.0218 259.418 98.7135 260.514 98.6633C261.609 98.6131 262.701 98.8223 263.7 99.2738Z" fill="#24126A"/>
<path d="M364.9 159.111C363.852 159.641 362.695 159.917 361.521 159.917C360.347 159.917 359.19 159.641 358.142 159.111C356.284 158.037 356.284 156.289 358.142 155.201C359.19 154.672 360.347 154.396 361.521 154.396C362.695 154.396 363.852 154.672 364.9 155.201C366.758 156.289 366.758 158.037 364.9 159.111Z" fill="#FFE3C1"/>
<path d="M339.122 140.363L352.334 148.002C353.958 148.925 353.71 150.563 351.88 151.636C350.925 152.17 349.859 152.471 348.766 152.517C347.674 152.562 346.586 152.35 345.59 151.898L332.364 144.258C330.754 143.336 330.988 141.698 332.818 140.624C333.775 140.091 334.844 139.789 335.939 139.744C337.034 139.698 338.124 139.91 339.122 140.363Z" fill="#FFE3C1"/>
<path d="M263.7 94.525L276.913 102.165C278.537 103.101 278.289 104.725 276.458 105.799C275.506 106.34 274.439 106.645 273.345 106.691C272.251 106.736 271.162 106.52 270.169 106.06L256.942 98.4343C255.332 97.4983 255.566 95.874 257.397 94.7866C258.355 94.2561 259.423 93.9562 260.517 93.9108C261.612 93.8654 262.701 94.0757 263.7 94.525Z" fill="#FFE3C1"/>
<g opacity="0.3">
<path opacity="0.3" d="M317.789 362.462V356.296L316.082 355.346C315.601 358.264 312.174 360.177 309.311 360.576L289.795 371.988L281.289 375.057L254.107 361.031L254.74 360.673C252.414 359.585 251.162 357.108 249.909 354.836L248.079 355.938L246.992 356.24V362.559C247.064 363.277 247.323 363.964 247.743 364.551C248.163 365.137 248.73 365.604 249.386 365.904L276.61 381.623C278.401 382.533 280.382 383.006 282.39 383.006C284.399 383.006 286.379 382.533 288.171 381.623L315.394 365.904C316.041 365.61 316.602 365.154 317.022 364.58C317.441 364.006 317.705 363.334 317.789 362.627C317.789 362.627 317.789 362.517 317.789 362.462Z" fill="url(#paint2_linear)"/>
<path opacity="0.3" d="M309.311 360.604L289.795 372.015L282.39 374.686V383.028C284.403 383.069 286.393 382.595 288.171 381.651L315.394 365.931C316.041 365.638 316.602 365.182 317.022 364.608C317.441 364.034 317.705 363.361 317.789 362.655C317.789 362.655 317.789 362.545 317.789 362.49V356.323L316.22 355.456H316.055C315.532 358.292 312.146 360.177 309.311 360.604Z" fill="#0F054C"/>
<path opacity="0.3" d="M276.61 375.36L249.386 359.641C246.193 357.796 246.193 354.795 249.386 352.965L276.61 337.203C278.401 336.294 280.382 335.82 282.39 335.82C284.399 335.82 286.379 336.294 288.171 337.203L315.394 352.923C318.573 354.754 318.573 357.755 315.394 359.599L288.171 375.36C286.378 376.263 284.398 376.733 282.39 376.733C280.383 376.733 278.403 376.263 276.61 375.36Z" fill="url(#paint3_linear)"/>
<g opacity="0.3">
<path opacity="0.3" d="M276.61 375.36L249.386 359.641C246.193 357.796 246.193 354.795 249.386 352.965L276.61 337.203C278.401 336.294 280.382 335.82 282.39 335.82C284.399 335.82 286.379 336.294 288.171 337.203L315.394 352.923C318.573 354.754 318.573 357.755 315.394 359.599L288.171 375.36C286.378 376.263 284.398 376.733 282.39 376.733C280.383 376.733 278.403 376.263 276.61 375.36Z" fill="#0F054C"/>
</g>
</g>
<path d="M282.39 352.483C280.602 352.522 278.834 352.1 277.257 351.258L250.033 335.538C249.395 335.309 248.843 334.889 248.453 334.335C248.063 333.78 247.853 333.119 247.853 332.441C247.853 331.763 248.063 331.101 248.453 330.547C248.843 329.993 249.395 329.572 250.033 329.344L277.257 313.624C278.847 312.816 280.606 312.395 282.39 312.395C284.174 312.395 285.933 312.816 287.524 313.624L314.747 329.344C315.385 329.572 315.937 329.993 316.328 330.547C316.718 331.101 316.927 331.763 316.927 332.441C316.927 333.119 316.718 333.78 316.328 334.335C315.937 334.889 315.385 335.309 314.747 335.538L287.524 351.258C285.946 352.1 284.178 352.522 282.39 352.483ZM277.491 350.845C279.008 351.612 280.684 352.011 282.383 352.011C284.083 352.011 285.759 351.612 287.276 350.845L314.499 335.125C315.108 334.986 315.651 334.645 316.04 334.158C316.429 333.67 316.64 333.065 316.64 332.441C316.64 331.817 316.429 331.212 316.04 330.724C315.651 330.236 315.108 329.895 314.499 329.757L287.276 314.037C285.761 313.264 284.084 312.86 282.383 312.86C280.682 312.86 279.006 313.264 277.491 314.037L250.267 329.757C249.659 329.895 249.116 330.236 248.727 330.724C248.338 331.212 248.126 331.817 248.126 332.441C248.126 333.065 248.338 333.67 248.727 334.158C249.116 334.645 249.659 334.986 250.267 335.125L277.491 350.845Z" fill="#FFE3C1"/>
<path opacity="0.4" d="M317.789 326.412V317.079L316.082 316.129C315.601 319.047 312.174 320.961 309.311 321.36L289.795 332.771L281.289 335.827L254.107 321.8L254.74 321.443C252.414 320.355 251.162 317.877 249.909 315.606L248.079 316.707L246.992 317.01V326.494C247.058 327.213 247.315 327.9 247.736 328.486C248.157 329.072 248.727 329.534 249.386 329.826L276.61 345.545C278.401 346.455 280.382 346.928 282.39 346.928C284.399 346.928 286.379 346.455 288.171 345.545L315.394 329.826C316.041 329.532 316.602 329.076 317.022 328.502C317.441 327.928 317.705 327.256 317.789 326.549C317.789 326.549 317.789 326.439 317.789 326.384V326.412Z" fill="#FFE3C1"/>
<path d="M317.789 318.111V311.945L316.082 310.995C315.601 313.913 312.174 315.826 309.311 316.226L289.795 327.637L281.289 330.706L254.107 316.68L254.74 316.322C252.414 315.234 251.162 312.757 249.909 310.499L248.079 311.587L246.992 311.89V318.221C247.066 318.937 247.326 319.621 247.746 320.206C248.166 320.79 248.732 321.254 249.386 321.553L276.61 337.272C278.401 338.182 280.382 338.656 282.39 338.656C284.399 338.656 286.379 338.182 288.171 337.272L315.394 321.553C316.041 321.259 316.602 320.803 317.022 320.229C317.441 319.655 317.705 318.983 317.789 318.277C317.789 318.277 317.789 318.166 317.789 318.111Z" fill="url(#paint4_linear)"/>
<path opacity="0.3" d="M309.311 316.226L289.795 327.637L282.39 330.321V338.663C284.403 338.704 286.393 338.23 288.171 337.286L315.394 321.567C316.041 321.273 316.602 320.817 317.022 320.243C317.441 319.669 317.705 318.997 317.789 318.29C317.789 318.29 317.789 318.18 317.789 318.125V311.959L316.22 311.091H316.055C315.532 313.941 312.146 315.84 309.311 316.226Z" fill="#0F054C"/>
<path d="M276.61 331.009L249.386 315.289C246.193 313.445 246.193 310.444 249.386 308.613L276.61 292.894C278.401 291.984 280.382 291.51 282.39 291.51C284.399 291.51 286.379 291.984 288.171 292.894L315.394 308.613C318.573 310.458 318.573 313.445 315.394 315.289L288.171 331.009C286.379 331.918 284.399 332.392 282.39 332.392C280.382 332.392 278.401 331.918 276.61 331.009Z" fill="url(#paint5_linear)"/>
<path d="M282.39 328.146C280.776 328.183 279.178 327.803 277.752 327.045L256.488 314.767C255.907 314.56 255.404 314.179 255.048 313.675C254.692 313.171 254.501 312.569 254.501 311.952C254.501 311.334 254.692 310.733 255.048 310.229C255.404 309.724 255.907 309.343 256.488 309.137L277.752 296.858C279.189 296.126 280.778 295.744 282.39 295.744C284.003 295.744 285.592 296.126 287.028 296.858L308.292 309.137C308.874 309.343 309.377 309.724 309.733 310.229C310.089 310.733 310.28 311.334 310.28 311.952C310.28 312.569 310.089 313.171 309.733 313.675C309.377 314.179 308.874 314.56 308.292 314.767L287.028 327.045C285.602 327.803 284.005 328.183 282.39 328.146ZM277.986 326.632C279.348 327.325 280.855 327.686 282.383 327.686C283.912 327.686 285.418 327.325 286.781 326.632L308.058 314.354C308.569 314.192 309.015 313.872 309.331 313.441C309.648 313.009 309.818 312.487 309.818 311.952C309.818 311.416 309.648 310.894 309.331 310.463C309.015 310.031 308.569 309.711 308.058 309.55L286.781 297.285C285.418 296.592 283.912 296.231 282.383 296.231C280.855 296.231 279.348 296.592 277.986 297.285L256.722 309.563C256.244 309.771 255.83 310.103 255.523 310.524C255.216 310.945 255.027 311.44 254.974 311.958C255.028 312.478 255.218 312.974 255.525 313.397C255.832 313.82 256.245 314.155 256.722 314.367L277.986 326.632Z" fill="#FFC6C1"/>
<path d="M315.394 315.29L288.171 331.009C286.379 331.919 284.399 332.392 282.39 332.392C280.381 332.392 278.401 331.919 276.61 331.009L249.386 315.29C248.792 315.009 248.27 314.597 247.86 314.084C247.45 313.571 247.162 312.971 247.019 312.33C246.988 313.119 247.197 313.898 247.62 314.565C248.043 315.231 248.659 315.753 249.386 316.06L276.61 331.78C278.403 332.683 280.383 333.153 282.39 333.153C284.398 333.153 286.378 332.683 288.171 331.78L315.394 316.06C316.121 315.754 316.736 315.232 317.157 314.565C317.578 313.898 317.784 313.118 317.748 312.33C317.607 312.97 317.322 313.57 316.914 314.083C316.506 314.596 315.986 315.009 315.394 315.29Z" fill="white"/>
<g opacity="0.3">
<path opacity="0.3" d="M84.9594 143.625V137.458L83.2528 136.508C82.771 139.413 79.344 141.34 76.4813 141.739L56.9653 153.137L48.4598 156.22L21.2777 142.193L21.9108 141.822C19.5849 140.748 18.3324 138.256 17.08 135.999L15.2495 137.086L14.1622 137.389V143.721C14.2269 144.44 14.4833 145.128 14.9045 145.714C15.3257 146.3 15.8964 146.762 16.557 147.052L43.7803 162.772C45.5716 163.681 47.552 164.155 49.5608 164.155C51.5696 164.155 53.55 163.681 55.3413 162.772L82.5646 147.052C83.212 146.759 83.7726 146.303 84.1921 145.729C84.6117 145.155 84.8759 144.482 84.9594 143.776V143.625Z" fill="url(#paint6_linear)"/>
<path opacity="0.3" d="M76.4813 141.739L56.9653 153.137L49.5608 155.821V164.162C51.5734 164.204 53.5633 163.73 55.3413 162.786L82.5646 147.066C83.212 146.773 83.7726 146.317 84.1921 145.743C84.6117 145.169 84.8759 144.496 84.9594 143.79V143.639V137.472L83.4041 136.605H83.239C82.6885 139.454 79.3165 141.34 76.4813 141.739Z" fill="#0F054C"/>
<path opacity="0.3" d="M43.7794 156.509L16.6249 140.789C13.4318 138.945 13.4318 135.958 16.6249 134.113L43.7794 118.338C45.5706 117.429 47.5511 116.955 49.5598 116.955C51.5686 116.955 53.5491 117.429 55.3403 118.338L82.5637 134.058C85.7567 135.903 85.7567 138.89 82.5637 140.734L55.3403 156.454C53.5534 157.372 51.5752 157.855 49.5664 157.865C47.5577 157.874 45.575 157.41 43.7794 156.509Z" fill="url(#paint7_linear)"/>
<g opacity="0.3">
<path opacity="0.3" d="M43.7794 156.509L16.6249 140.789C13.4318 138.945 13.4318 135.958 16.6249 134.113L43.7794 118.338C45.5706 117.429 47.5511 116.955 49.5598 116.955C51.5686 116.955 53.5491 117.429 55.3403 118.338L82.5637 134.058C85.7567 135.903 85.7567 138.89 82.5637 140.734L55.3403 156.454C53.5534 157.372 51.5752 157.855 49.5664 157.865C47.5577 157.874 45.575 157.41 43.7794 156.509Z" fill="#0F054C"/>
</g>
</g>
<path d="M49.5608 137.678C47.7735 137.711 46.0073 137.289 44.4272 136.453L17.2039 120.734C16.5609 120.508 16.004 120.088 15.61 119.532C15.216 118.976 15.0043 118.311 15.0043 117.63C15.0043 116.948 15.216 116.283 15.61 115.727C16.004 115.171 16.5609 114.751 17.2039 114.526L44.4272 98.8058C46.0199 98.0045 47.7779 97.5872 49.5608 97.5872C51.3436 97.5872 53.1017 98.0045 54.6944 98.8058L81.9177 114.526C82.5606 114.751 83.1176 115.171 83.5116 115.727C83.9056 116.283 84.1172 116.948 84.1172 117.63C84.1172 118.311 83.9056 118.976 83.5116 119.532C83.1176 120.088 82.5606 120.508 81.9177 120.734L54.6944 136.453C53.1143 137.289 51.348 137.711 49.5608 137.678ZM49.5608 98.0488C47.8594 98.0193 46.1784 98.4218 44.6749 99.2188L17.4378 114.939C16.8726 115.126 16.3808 115.487 16.0323 115.97C15.6838 116.453 15.4963 117.034 15.4963 117.63C15.4963 118.225 15.6838 118.806 16.0323 119.289C16.3808 119.772 16.8726 120.133 17.4378 120.321L44.6749 136.04C46.1919 136.807 47.8679 137.207 49.5677 137.207C51.2675 137.207 52.9434 136.807 54.4604 136.04L81.6837 120.321C82.249 120.133 82.7407 119.772 83.0892 119.289C83.4377 118.806 83.6253 118.225 83.6253 117.63C83.6253 117.034 83.4377 116.453 83.0892 115.97C82.7407 115.487 82.249 115.126 81.6837 114.939L54.4604 99.2188C52.952 98.4218 51.2665 98.0193 49.5608 98.0488Z" fill="#FFE3C1"/>
<path opacity="0.4" d="M84.9594 111.594V102.275L83.2528 101.325C82.771 104.229 79.344 106.156 76.4813 106.556L56.9653 117.967L48.4598 121.092L21.2777 107.065L21.9108 106.707C19.5849 105.62 18.3324 103.142 17.08 100.871L15.2495 101.958L14.1622 102.275V111.745C14.2499 112.461 14.5235 113.141 14.9557 113.718C15.3879 114.295 15.9637 114.749 16.6258 115.035L43.7803 130.727C45.5716 131.636 47.552 132.11 49.5608 132.11C51.5696 132.11 53.55 131.636 55.3413 130.727L82.5646 115.007C83.212 114.714 83.7726 114.258 84.1921 113.684C84.6117 113.11 84.8759 112.437 84.9594 111.731V111.566V111.594Z" fill="#FFE3C1"/>
<path d="M84.9594 103.307V97.1404L83.2528 96.1906C82.771 99.095 79.344 101.022 76.4813 101.421L56.9653 112.833L48.4598 115.902L21.2777 101.821L21.9108 101.463C19.5849 100.375 18.3324 97.8975 17.08 95.6262L15.2495 96.7137L14.1622 97.0303V103.348C14.2343 104.067 14.4933 104.753 14.9135 105.34C15.3337 105.927 15.9004 106.394 16.557 106.693L43.7803 122.468C45.5735 123.371 47.5532 123.841 49.5608 123.841C51.5684 123.841 53.5481 123.371 55.3413 122.468L82.5646 106.748C83.212 106.455 83.7726 105.999 84.1921 105.425C84.6117 104.851 84.8759 104.178 84.9594 103.472V103.307Z" fill="url(#paint8_linear)"/>
<path opacity="0.3" d="M76.4813 101.421L56.9653 112.833L49.5608 115.503V123.845C51.5734 123.886 53.5633 123.412 55.3413 122.468L82.5646 106.748C83.212 106.455 83.7726 105.999 84.1921 105.425C84.6117 104.851 84.8759 104.178 84.9594 103.472V103.307V97.1404L83.4041 96.2732H83.239C82.6885 99.1363 79.3165 101.022 76.4813 101.421Z" fill="#0F054C"/>
<path d="M21.9108 101.518L47.7165 86.6788C48.2911 86.3906 48.9249 86.2405 49.5677 86.2405C50.2104 86.2405 50.8443 86.3906 51.4188 86.6788L76.7566 101.311L76.4813 101.476C79.344 101.077 82.771 99.15 83.2527 96.2456L54.8045 80.4157L46.5467 78.2271L39.8028 82.1914L17.0938 95.7363C18.3324 97.9524 19.5849 100.444 21.9108 101.518Z" fill="url(#paint9_linear)"/>
<path opacity="0.3" d="M49.5608 78.9843L46.5329 78.1721L39.789 82.1365L17.08 95.6813C18.3324 97.9526 19.5848 100.43 21.9108 101.518L47.7165 86.6789C48.2806 86.3679 48.9168 86.2112 49.5608 86.2247V78.9843Z" fill="#0F054C"/>
<path d="M43.7804 116.191L16.6258 100.444C13.4328 98.6131 13.4328 95.6123 16.6258 93.7678L43.8492 78.048C45.6423 77.1451 47.6221 76.6748 49.6297 76.6748C51.6373 76.6748 53.6169 77.1451 55.4101 78.048L82.6334 93.7678C85.8265 95.6123 85.8265 98.6131 82.6334 100.444L55.4101 116.164C53.6122 117.088 51.6204 117.573 49.5985 117.578C47.5767 117.583 45.5827 117.107 43.7804 116.191ZM51.4188 80.4018C50.8443 80.1136 50.2104 79.9636 49.5677 79.9636C48.925 79.9636 48.2911 80.1136 47.7166 80.4018L20.4933 96.1216C20.2665 96.1952 20.0688 96.3387 19.9286 96.5316C19.7884 96.7245 19.7129 96.9568 19.7129 97.1953C19.7129 97.4337 19.7884 97.6661 19.9286 97.859C20.0688 98.0518 20.2665 98.1954 20.4933 98.2689L47.7166 113.989C48.2911 114.277 48.925 114.427 49.5677 114.427C50.2104 114.427 50.8443 114.277 51.4188 113.989L78.6422 98.2689C78.8625 98.1888 79.0528 98.0427 79.1873 97.8507C79.3218 97.6586 79.394 97.4298 79.394 97.1953C79.394 96.9608 79.3218 96.7319 79.1873 96.5399C79.0528 96.3478 78.8625 96.2017 78.6422 96.1216L51.4188 80.4018Z" fill="url(#paint10_linear)"/>
<path d="M78.6421 96.0667L51.4188 80.347C50.8443 80.0588 50.2104 79.9087 49.5676 79.9087C48.9249 79.9087 48.291 80.0588 47.7165 80.347L20.4932 96.0667C19.8051 96.4659 19.5848 97.0165 19.8051 97.5258C19.9601 97.2325 20.1999 96.9927 20.4932 96.8376L47.7165 81.1729C48.291 80.8847 48.9249 80.7346 49.5676 80.7346C50.2104 80.7346 50.8443 80.8847 51.4188 81.1729L78.6421 96.8926C78.9319 97.0478 79.1672 97.288 79.3165 97.5809C79.5367 97.0165 79.3165 96.4659 78.6421 96.0667Z" fill="white"/>
<path d="M82.5646 100.444L55.3413 116.164C53.55 117.073 51.5696 117.547 49.5608 117.547C47.552 117.547 45.5716 117.073 43.7804 116.164L16.6258 100.444C16.0316 100.168 15.5089 99.7584 15.0984 99.2476C14.6878 98.7367 14.4005 98.1381 14.2586 97.4983C14.228 98.2851 14.4383 99.0626 14.8613 99.7267C15.2843 100.391 15.8999 100.91 16.6258 101.215L43.7804 116.962C45.5716 117.871 47.552 118.345 49.5608 118.345C51.5696 118.345 53.55 117.871 55.3413 116.962L82.5646 101.242C83.2905 100.938 83.9061 100.418 84.3291 99.7542C84.7522 99.0901 84.9624 98.3127 84.9319 97.5258C84.7861 98.1607 84.497 98.7537 84.0867 99.2596C83.6764 99.7654 83.1557 100.171 82.5646 100.444Z" fill="white"/>
<path d="M44.5511 115.751L17.3278 100.031C14.5752 98.4342 14.5752 95.9014 17.3278 94.2496L44.5511 78.5299C46.1021 77.7373 47.819 77.324 49.5608 77.324C51.3026 77.324 53.0195 77.7373 54.5706 78.5299L81.7939 94.2496C84.5465 95.8464 84.5465 98.3792 81.7939 100.031L54.5706 115.751C53.0195 116.543 51.3026 116.957 49.5608 116.957C47.819 116.957 46.1021 116.543 44.5511 115.751ZM52.1758 79.9615C51.3664 79.5471 50.4701 79.331 49.5608 79.331C48.6515 79.331 47.7553 79.5471 46.9458 79.9615L19.7225 95.6261C19.4051 95.7324 19.1291 95.9358 18.9336 96.2075C18.738 96.4792 18.6328 96.8055 18.6328 97.1403C18.6328 97.4751 18.738 97.8014 18.9336 98.0731C19.1291 98.3448 19.4051 98.5482 19.7225 98.6545L46.9045 114.374C47.7162 114.781 48.6116 114.993 49.5195 114.993C50.4274 114.993 51.3228 114.781 52.1345 114.374L79.3716 98.6545C79.689 98.5482 79.965 98.3448 80.1605 98.0731C80.3561 97.8014 80.4613 97.4751 80.4613 97.1403C80.4613 96.8055 80.3561 96.4792 80.1605 96.2075C79.965 95.9358 79.689 95.7324 79.3716 95.6261L52.1758 79.9615Z" fill="url(#paint11_linear)"/>
<path opacity="0.4" d="M51.4188 80.347C50.8443 80.0588 50.2104 79.9087 49.5677 79.9087C48.9249 79.9087 48.2911 80.0588 47.7165 80.347L20.4932 96.0667C20.2664 96.1403 20.0687 96.2838 19.9285 96.4767C19.7884 96.6696 19.7128 96.9019 19.7128 97.1404C19.7128 97.3789 19.7884 97.6112 19.9285 97.8041C20.0687 97.997 20.2664 98.1405 20.4932 98.2141L47.7165 113.934C48.2911 114.222 48.9249 114.372 49.5677 114.372C50.2104 114.372 50.8443 114.222 51.4188 113.934L78.6421 98.2141C78.8624 98.1339 79.0528 97.9879 79.1873 97.7958C79.3218 97.6037 79.3939 97.3749 79.3939 97.1404C79.3939 96.9059 79.3218 96.6771 79.1873 96.485C79.0528 96.2929 78.8624 96.1469 78.6421 96.0667L51.4188 80.347Z" fill="#FFE3C1"/>
<g style="mix-blend-mode:lighten" opacity="0.5">
<path d="M79.399 97.1128V-0.0412598H19.7225V97.0715C19.7378 97.308 19.8177 97.5359 19.9536 97.73C20.0896 97.9242 20.2762 98.0774 20.4932 98.1727L47.7165 113.892C48.291 114.181 48.9249 114.331 49.5676 114.331C50.2104 114.331 50.8443 114.181 51.4188 113.892L78.6421 98.1727C78.8459 98.0723 79.0218 97.9229 79.1539 97.738C79.286 97.553 79.3702 97.3382 79.399 97.1128Z" fill="#FFF8F0"/>
</g>
<path d="M265.985 174.445C265.985 159.097 255.222 140.431 241.927 132.764C235.266 128.91 229.237 128.552 224.888 131.085L220.319 133.755L221.695 133.879C219.3 136.811 217.897 141.133 217.897 146.653C217.897 162.001 228.673 180.667 241.968 188.348C246.538 190.977 250.804 191.982 254.438 191.528L254.341 192.753L258.952 190L259.131 189.889C263.384 187.329 265.985 182.002 265.985 174.445Z" fill="#BD7B2E"/>
<path d="M254.349 192.725C263.749 187.297 263.75 169.698 254.351 153.416C244.952 137.134 229.713 128.336 220.313 133.764C210.912 139.192 210.911 156.791 220.31 173.072C229.709 189.354 244.948 198.153 254.349 192.725Z" fill="#FFE3C1"/>
<path d="M209.763 108.111C218.681 95.6125 220.773 74.1527 214.373 60.1949C211.18 53.1885 206.473 49.4031 201.463 48.9351L196.22 48.467L197.224 49.3342C193.563 50.3253 189.902 53.0371 186.709 57.5933C177.805 70.092 175.699 91.538 182.099 105.51C183.722 109.589 186.618 113.036 190.357 115.338L189.572 116.274L194.899 116.756H194.967H195.174C200.156 117.086 205.386 114.209 209.763 108.111Z" fill="#BD7B2E"/>
<path d="M212.519 84.2234C214.318 65.5093 207.017 49.4965 196.212 48.4579C185.408 47.4193 175.191 61.7481 173.392 80.4622C171.594 99.1764 178.895 115.189 189.7 116.228C200.504 117.266 210.721 102.938 212.519 84.2234Z" fill="#FFE3C1"/>
<g opacity="0.1">
<path opacity="0.1" d="M217.855 209.188C217.855 193.84 207.079 175.175 193.797 167.494C187.136 163.653 181.108 163.295 176.745 165.828L172.203 168.485L173.579 168.609C171.171 171.541 169.781 175.877 169.781 181.383C169.781 196.745 180.557 215.41 193.852 223.077C197.553 225.465 201.93 226.582 206.322 226.257L206.225 227.482L210.836 224.729L211.029 224.619C215.254 222.045 217.855 216.704 217.855 209.188Z" fill="#BD7B2E"/>
<path opacity="0.1" d="M206.214 227.442C215.614 222.014 215.616 204.415 206.217 188.133C196.818 171.851 181.578 163.053 172.178 168.481C162.778 173.909 162.777 191.508 172.176 207.79C181.575 224.071 196.814 232.87 206.214 227.442Z" fill="#FFE3C1"/>
</g>
<path opacity="0.4" d="M190.742 234.199C174.144 234.199 157.546 230.552 144.897 223.256C132.607 216.153 125.836 206.738 125.836 196.648C125.836 186.558 132.607 177.129 144.897 170.04C170.18 155.435 211.304 155.435 236.587 170.04C248.877 177.129 255.649 186.558 255.649 196.648C255.649 206.738 248.877 216.153 236.587 223.256L236.477 223.05L236.587 223.256C223.952 230.552 207.354 234.199 190.742 234.199ZM190.742 159.565C174.226 159.565 157.711 163.185 145.145 170.453C133.006 177.46 126.317 186.765 126.317 196.607C126.317 206.449 133.006 215.795 145.145 222.761C170.29 237.283 211.208 237.283 236.353 222.761C248.492 215.754 255.167 206.449 255.167 196.607C255.167 186.765 248.492 177.418 236.353 170.453C223.773 163.185 207.258 159.634 190.742 159.634V159.565Z" fill="#FFE3C1"/>
<path opacity="0.2" d="M190.742 244.275C169.671 244.275 148.613 239.637 132.566 230.373C116.986 221.37 108.398 209.395 108.398 196.648C108.398 183.902 116.986 171.871 132.566 162.91C164.647 144.396 216.837 144.396 248.919 162.91C264.512 171.912 273.086 183.888 273.086 196.648C273.086 209.408 264.512 221.425 248.919 230.373C232.885 239.637 211.813 244.275 190.742 244.275ZM190.742 149.489C169.767 149.489 148.779 154.1 132.814 163.323C117.371 172.243 108.838 184.067 108.838 196.648C108.838 209.23 117.33 221.054 132.772 229.96C164.716 248.419 216.727 248.419 248.643 229.96C264.113 221.054 272.619 209.188 272.619 196.648C272.619 184.108 264.113 172.243 248.685 163.337C232.706 154.128 211.731 149.489 190.742 149.489Z" fill="#FFE3C1"/>
<path d="M190.742 226.271C177.667 226.271 164.592 223.394 154.614 217.654C144.98 212.051 139.585 204.591 139.585 196.648C139.585 188.706 144.925 181.245 154.614 175.643C174.543 164.149 206.914 164.149 226.87 175.643C236.573 181.245 241.913 188.706 241.913 196.648C241.913 204.591 236.573 212.051 226.87 217.654L226.76 217.433L226.87 217.654C216.919 223.394 203.803 226.271 190.742 226.271ZM190.742 167.494C177.75 167.494 164.744 170.343 154.848 176.056C145.31 181.562 140.053 188.885 140.053 196.703C140.053 204.522 145.31 211.845 154.862 217.351C174.653 228.79 206.845 228.79 226.636 217.351C236.174 211.845 241.431 204.536 241.431 196.703C241.431 188.871 236.174 181.63 226.636 176.056C216.741 170.343 203.803 167.494 190.742 167.494Z" fill="#FFE3C1"/>
<path d="M217.855 209.188C217.855 193.84 207.079 175.175 193.797 167.494C187.136 163.653 181.108 163.295 176.745 165.828L172.203 168.485L173.579 168.609C171.171 171.541 169.781 175.877 169.781 181.383C169.781 196.745 180.557 215.41 193.852 223.077C197.553 225.465 201.93 226.582 206.322 226.257L206.225 227.482L210.836 224.729L211.029 224.619C215.254 222.045 217.855 216.704 217.855 209.188Z" fill="#BD7B2E"/>
<path d="M206.214 227.442C215.614 222.014 215.616 204.415 206.217 188.133C196.818 171.851 181.578 163.053 172.178 168.481C162.778 173.909 162.777 191.508 172.176 207.79C181.575 224.071 196.814 232.87 206.214 227.442Z" fill="#FFE3C1"/>
<path opacity="0.4" d="M126.111 275.564L50.5241 231.914C50.0154 231.621 49.5928 231.199 49.299 230.69C49.0053 230.181 48.8506 229.604 48.8506 229.017C48.8506 228.429 49.0053 227.852 49.299 227.344C49.5928 226.835 50.0154 226.413 50.5241 226.119L62.0576 219.402C63.9527 218.306 66.1031 217.729 68.2922 217.729C70.4813 217.729 72.6318 218.306 74.5269 219.402L150.127 263.051C150.636 263.343 151.059 263.764 151.354 264.271C151.648 264.779 151.803 265.355 151.803 265.942C151.803 266.528 151.648 267.105 151.354 267.612C151.059 268.12 150.636 268.541 150.127 268.832L138.594 275.564C136.697 276.662 134.544 277.24 132.352 277.24C130.161 277.24 128.008 276.662 126.111 275.564Z" fill="#24126A"/>
<path d="M88.2762 230.937L76.1785 223.958L78.587 222.568L90.6847 229.547L88.2762 230.937Z" fill="#FFE3C1"/>
<path d="M122.381 251.13L118.665 248.983L121.074 247.593L124.79 249.74L122.381 251.13Z" fill="#FFE3C1"/>
<path d="M95.2817 235.094L91.5657 232.947L93.9742 231.556L97.6902 233.704L95.2817 235.094Z" fill="#FFE3C1"/>
<path d="M132.345 266.864C130.11 266.865 127.913 266.282 125.973 265.171L50.3865 221.577C49.8361 221.259 49.3795 220.801 49.0629 220.25C48.7462 219.699 48.5809 219.074 48.5836 218.438C48.5791 217.804 48.7438 217.18 49.0607 216.631C49.3776 216.082 49.8353 215.627 50.3865 215.314L61.9338 208.583C63.8695 207.466 66.0647 206.879 68.2992 206.879C70.5336 206.879 72.7288 207.466 74.6646 208.583L150.251 252.232C150.802 252.55 151.258 253.007 151.575 253.558C151.892 254.11 152.057 254.735 152.054 255.37C152.059 256.004 151.894 256.628 151.577 257.177C151.26 257.727 150.802 258.181 150.251 258.495L138.718 265.226C136.772 266.317 134.576 266.882 132.345 266.864ZM68.2923 207.371C66.1515 207.373 64.0488 207.938 62.1952 209.009L50.6618 215.727C50.1925 215.994 49.8022 216.38 49.5308 216.847C49.2593 217.313 49.1163 217.843 49.1163 218.383C49.1163 218.923 49.2593 219.454 49.5308 219.92C49.8022 220.387 50.1925 220.773 50.6618 221.04L126.248 264.689C128.103 265.758 130.205 266.321 132.345 266.321C134.486 266.321 136.588 265.758 138.443 264.689L149.976 257.972C150.445 257.703 150.835 257.315 151.106 256.848C151.377 256.38 151.52 255.849 151.52 255.308C151.52 254.768 151.377 254.237 151.106 253.769C150.835 253.301 150.445 252.913 149.976 252.645L74.4306 209.009C72.5664 207.927 70.4476 207.362 68.2923 207.371Z" fill="#FFE3C1"/>
</g>
<defs>
<linearGradient id="paint0_linear" x1="0.261567" y1="209.367" x2="399.789" y2="209.367" gradientUnits="userSpaceOnUse">
<stop stop-color="#0D0F5E"/>
<stop offset="0.286458" stop-color="#5B61CD"/>
<stop offset="1" stop-color="#040620"/>
</linearGradient>
<linearGradient id="paint1_linear" x1="168496" y1="51357.2" x2="154562" y2="19377.1" gradientUnits="userSpaceOnUse">
<stop stop-color="#42E8E0"/>
<stop offset="0.11" stop-color="#37B6BF"/>
<stop offset="0.22" stop-color="#2C87A1"/>
<stop offset="0.34" stop-color="#235F87"/>
<stop offset="0.46" stop-color="#1C3F72"/>
<stop offset="0.58" stop-color="#162561"/>
<stop offset="0.71" stop-color="#121355"/>
<stop offset="0.85" stop-color="#10084E"/>
<stop offset="1" stop-color="#0F054C"/>
</linearGradient>
<linearGradient id="paint2_linear" x1="30725.2" y1="8354" x2="31965.3" y2="10154.1" gradientUnits="userSpaceOnUse">
<stop stop-color="#BCBEFF"/>
<stop offset="0.23" stop-color="#AAADF8"/>
<stop offset="0.68" stop-color="#7C83E5"/>
<stop offset="1" stop-color="#5761D7"/>
</linearGradient>
<linearGradient id="paint3_linear" x1="30358.3" y1="12318.1" x2="33999.5" y2="12318.1" gradientUnits="userSpaceOnUse">
<stop stop-color="#E9E9FD"/>
<stop offset="0.36" stop-color="#D3D2F9"/>
<stop offset="0.71" stop-color="#C5C4F7"/>
<stop offset="1" stop-color="#C0BFF6"/>
</linearGradient>
<linearGradient id="paint4_linear" x1="30725.2" y1="7398.84" x2="31964.9" y2="9198.5" gradientUnits="userSpaceOnUse">
<stop stop-color="#BCBEFF"/>
<stop offset="0.23" stop-color="#AAADF8"/>
<stop offset="0.68" stop-color="#7C83E5"/>
<stop offset="1" stop-color="#5761D7"/>
</linearGradient>
<linearGradient id="paint5_linear" x1="30358.3" y1="10947.4" x2="33999.5" y2="10947.4" gradientUnits="userSpaceOnUse">
<stop stop-color="#E9E9FD"/>
<stop offset="0.36" stop-color="#D3D2F9"/>
<stop offset="0.71" stop-color="#C5C4F7"/>
<stop offset="1" stop-color="#C0BFF6"/>
</linearGradient>
<linearGradient id="paint6_linear" x1="18515.6" y1="3654.97" x2="19755.3" y2="5454.63" gradientUnits="userSpaceOnUse">
<stop stop-color="#BCBEFF"/>
<stop offset="0.23" stop-color="#AAADF8"/>
<stop offset="0.68" stop-color="#7C83E5"/>
<stop offset="1" stop-color="#5761D7"/>
</linearGradient>
<linearGradient id="paint7_linear" x1="18135.5" y1="5594.34" x2="21773.8" y2="5594.34" gradientUnits="userSpaceOnUse">
<stop stop-color="#E9E9FD"/>
<stop offset="0.36" stop-color="#D3D2F9"/>
<stop offset="0.71" stop-color="#C5C4F7"/>
<stop offset="1" stop-color="#C0BFF6"/>
</linearGradient>
<linearGradient id="paint8_linear" x1="18515.6" y1="2795.53" x2="19758.9" y2="4596.53" gradientUnits="userSpaceOnUse">
<stop stop-color="#BCBEFF"/>
<stop offset="0.23" stop-color="#AAADF8"/>
<stop offset="0.68" stop-color="#7C83E5"/>
<stop offset="1" stop-color="#5761D7"/>
</linearGradient>
<linearGradient id="paint9_linear" x1="24.5809" y1="82.7007" x2="74.6683" y2="111.615" gradientUnits="userSpaceOnUse">
<stop stop-color="#FF4B36"/>
<stop offset="1" stop-color="#FE678B"/>
</linearGradient>
<linearGradient id="paint10_linear" x1="18153.2" y1="4355.16" x2="21795" y2="4355.16" gradientUnits="userSpaceOnUse">
<stop stop-color="#E9E9FD"/>
<stop offset="0.36" stop-color="#D3D2F9"/>
<stop offset="0.71" stop-color="#C5C4F7"/>
<stop offset="1" stop-color="#C0BFF6"/>
</linearGradient>
<linearGradient id="paint11_linear" x1="17644.2" y1="4222.9" x2="21064.3" y2="4222.9" gradientUnits="userSpaceOnUse">
<stop stop-color="#E9E9FD"/>
<stop offset="0.36" stop-color="#D3D2F9"/>
<stop offset="0.71" stop-color="#C5C4F7"/>
<stop offset="1" stop-color="#C0BFF6"/>
</linearGradient>
<clipPath id="clip0">
<rect width="439" height="383" fill="white"/>
</clipPath>
</defs>
</svg>
