<svg width="216" height="39" viewBox="0 0 216 39" fill="none" xmlns="http://www.w3.org/2000/svg">
<g clip-path="url(#clip0)">
<path d="M24.6194 7.54694L23.3657 8.57845C23.3484 8.59208 23.3269 8.59948 23.3049 8.59948C23.2828 8.59948 23.2614 8.59208 23.244 8.57845C22.9665 8.34949 22.6939 8.12907 22.4273 7.90012C20.5955 6.32911 18.7539 4.76906 16.9367 3.181C16.0823 2.43759 15.0198 1.97551 13.8937 1.85763C12.7675 1.73975 11.6325 1.97178 10.6428 2.52215C9.88952 2.94795 9.24899 3.54793 8.77475 4.27195C8.30051 4.99598 8.00633 5.82305 7.91674 6.68407C7.82715 7.54508 7.94477 8.41503 8.25978 9.22128C8.57479 10.0275 9.07804 10.7466 9.7275 11.3186C11.4924 12.8738 13.3059 14.3741 15.0915 15.9062C19.0456 19.3015 22.9981 22.6997 26.949 26.1007C28.7747 27.6729 29.6438 29.686 29.533 32.0778C29.4643 33.7253 28.8329 35.2994 27.7442 36.5373C26.6554 37.7751 25.1752 38.6019 23.5507 38.8795C21.2552 39.2692 19.2079 38.7114 17.4333 37.1988C15.3512 35.4216 13.2723 33.6399 11.1966 31.8537C11.1224 31.7904 11.0615 31.7125 10.9666 31.6102C11.4218 31.2375 11.8575 30.8795 12.3298 30.4922C13.2305 31.2631 14.1214 32.023 15.0075 32.7854C16.2076 33.8145 17.3822 34.8776 18.6152 35.8689C20.4823 37.3705 22.5551 37.6421 24.7009 36.5558C26.7993 35.4914 27.7913 33.6781 27.7049 31.341C27.6489 29.7968 26.9953 28.4937 25.8025 27.4732C20.1492 22.6327 14.4975 17.7898 8.8475 12.9444C7.38691 11.6961 6.4497 10.1775 6.14055 8.26425C5.54536 4.56933 8.09895 0.863446 11.776 0.154665C14.0801 -0.288628 16.1699 0.193635 17.9749 1.72202C20.111 3.53173 22.2277 5.36214 24.354 7.18281C24.4344 7.25223 24.5208 7.31433 24.6206 7.3874C24.6329 7.3968 24.6428 7.40893 24.6496 7.42282C24.6564 7.43672 24.6599 7.452 24.6597 7.46747C24.6596 7.48294 24.6559 7.49817 24.6489 7.51196C24.6419 7.52575 24.6318 7.53773 24.6194 7.54694Z" fill="black"/>
<path d="M34 30.6237H32.2218C32.2071 29.0892 32.2218 27.5572 32.2218 26.0264C32.2218 24.4956 32.2218 22.9818 32.2218 21.4607V12.1345C29.6548 14.2048 27.2132 16.2569 24.7034 18.2919L12.2227 8.03041C12.6304 7.53597 13.0016 7.08538 13.3984 6.60189L24.7058 15.8952L34.0061 8.25815L34 30.6237Z" fill="black"/>
<path d="M1.82818 14.9319V30.5969C1.2196 30.7285 0.64632 30.6322 0.00244522 30.6676V13.8212C0.00244522 12.9005 0.00244522 11.9799 0.00244522 11.0592L0.167962 11.008L22.3263 29.2244L21.17 30.67L1.95717 14.8783L1.82818 14.9319Z" fill="black"/>
</g>
<g clip-path="url(#clip1)">
<path d="M147.05 27.0331C146.627 24.1795 146.218 21.4664 145.823 18.7241L145.543 18.6449L139.518 27.1093C137.441 24.1795 135.482 21.4078 133.303 18.3197C132.837 21.4254 132.426 24.1795 132.002 27.0009H129.636C130.314 22.0905 130.986 17.2386 131.704 12.0586C134.528 15.762 136.824 19.4917 139.549 23.1599C142.118 19.4536 144.586 15.8938 147.284 12.0088C148.128 17.1888 148.72 22.0553 149.432 27.0009C148.953 27.039 148.609 27.0829 148.266 27.0888C147.922 27.0947 147.544 27.0507 147.05 27.0331Z" fill="black"/>
<path d="M183.043 12.7764H185.354V28.0117L173.94 17.4759C173.94 18.7826 173.918 19.7612 173.915 20.7369C173.915 21.7623 173.915 22.7878 173.915 23.8103V26.9775H171.589V12.1231L183.037 22.6501L183.043 12.7764Z" fill="black"/>
<path d="M167.832 19.9604C167.832 24.3992 164.664 27.4023 160.039 27.376C155.577 27.3525 152.4 24.2556 152.391 19.9224C152.391 15.5276 155.586 12.4659 160.156 12.4278C165.346 12.3838 168.065 16.4065 167.832 19.9604ZM165.465 19.8608C165.444 16.7464 163.317 14.716 160.094 14.7336C156.918 14.7336 154.748 16.8665 154.769 19.937C154.791 23.0075 156.985 25.0877 160.174 25.0789C163.363 25.0701 165.487 22.9636 165.465 19.8608Z" fill="black"/>
<path d="M210.138 27.0155H207.732C207.732 25.8934 207.698 24.8328 207.732 23.7751C207.758 23.0451 207.554 22.3243 207.145 21.7066C205.543 19.0991 203.978 16.4739 202.4 13.8546L201.786 12.838H204.515L208.91 20.0396C210.445 17.5287 211.86 15.2024 213.327 12.8028H215.988C215.751 13.2481 215.57 13.6319 215.352 13.9982C213.818 16.5354 212.317 19.0786 210.749 21.5924C210.288 22.2924 210.064 23.1107 210.107 23.9363C210.178 24.9119 210.138 25.8876 210.138 27.0155Z" fill="black"/>
<path d="M82.4957 27.0127H81.3048C80.9058 23.4617 80.5068 19.9019 80.0771 15.9817C77.9286 18.6801 76.4217 21.4078 74.396 24.0037L68.7824 15.8411C68.3527 19.773 67.9598 23.3591 67.5547 27.0068H66.37C66.8488 22.1901 67.3215 17.4495 67.8248 12.4072C68.7947 13.4591 69.3594 14.508 70.0285 15.4719C70.762 16.5267 71.4741 17.5961 72.1954 18.6596C72.9166 19.7231 73.5796 20.7105 74.4113 21.9264L80.7615 12.6153L81.0316 12.6504C81.5104 17.3792 81.9923 22.1081 82.4957 27.0127Z" fill="black"/>
<path d="M103.67 21.8825V26.9658L102.504 27.083V12.879C104.984 12.9083 107.476 12.6534 109.947 13.043C110.839 13.1677 111.665 13.5676 112.297 14.1817C112.929 14.7959 113.334 15.5906 113.449 16.4446C113.682 18.5307 112.651 20.397 110.748 21.2584C110.201 21.5074 109.612 21.6686 108.928 21.9118L113.568 27.0156H111.942L107.2 21.8825H103.67ZM103.707 20.6079C105.496 20.6079 107.221 20.6783 108.925 20.5816C110.097 20.5171 111.027 19.8667 111.687 18.9233C112.991 17.0394 112.086 14.672 109.775 14.2355C107.789 13.8517 105.757 14.0509 103.704 14.13L103.707 20.6079Z" fill="black"/>
<path d="M62.8742 16.3245L61.9043 16.3772C61.5545 15.009 60.7196 14.089 59.317 13.7404C57.7824 13.3536 56.2846 13.3712 54.839 14.0597C53.8507 14.5314 53.2277 15.2492 53.2215 16.3479C53.2154 17.4466 53.8783 18.185 54.8973 18.5717C55.8426 18.9292 56.8371 19.1577 57.807 19.4507C58.826 19.7612 59.891 19.981 60.8486 20.4146C63.3806 21.5543 63.752 24.5867 61.6312 26.3417C59.5104 28.0967 55.2749 28.0645 53.2308 26.2919C52.4512 25.618 51.9325 24.8094 52.086 23.655L52.9669 23.6023C54.2498 26.2626 57.1992 27.2412 59.9646 25.9462C61.002 25.4657 61.711 24.7537 61.711 23.5847C61.711 22.4157 60.9682 21.6832 59.8909 21.3023C58.8136 20.9214 57.7425 20.69 56.6744 20.3707C55.7997 20.107 54.9188 19.8521 54.0717 19.521C51.4261 18.4897 51.5182 15.0354 53.2032 13.6612C55.3179 11.9033 59.6945 11.874 61.7447 13.6847C62.5274 14.3439 63.0184 15.1643 62.8742 16.3245Z" fill="black"/>
<path d="M92.1054 12.2227L99.2811 27.0127H97.9276C96.0155 23.0866 94.1065 19.1635 92.0961 15.0529C90.1104 19.1547 88.2044 23.0573 86.2646 27.0185H84.9326L92.1054 12.2227Z" fill="black"/>
<path d="M127.162 12.9317V14.004H122.377V26.957L121.131 27.0771V14.2648C119.477 13.8048 117.874 14.2648 116.281 13.9454V12.9317H127.162Z" fill="black"/>
<path d="M189.206 14.9679V12.8321H199.15V14.9679H189.206Z" fill="black"/>
<path d="M189.206 26.9804V24.8445H199.15V26.9804H189.206Z" fill="black"/>
<path d="M189.194 18.6039H198.374V20.7046H189.194V18.6039Z" fill="black"/>
</g>
<defs>
<clipPath id="clip0">
<rect width="34" height="39" fill="white"/>
</clipPath>
<clipPath id="clip1">
<rect width="164" height="16" fill="white" transform="translate(52 12)"/>
</clipPath>
</defs>
</svg>
