<svg width="371" height="428" viewBox="0 0 371 428" fill="none" xmlns="http://www.w3.org/2000/svg">
<g opacity="0.2">
<path d="M269.717 81.9114L254.285 94.704C250.832 91.8166 247.472 89.0629 244.178 86.229C224.257 68.9851 204.336 51.6343 184.202 34.5107C161.426 15.0745 129.472 15.021 106.855 34.123C79.4969 57.2218 78.9656 100.238 106.138 124.206C128.423 143.869 151.2 162.971 173.711 182.394C213.34 216.606 252.961 250.813 292.574 285.015C312.667 302.393 322.681 324.088 322.336 350.716C321.858 387.516 293.118 420.881 256.981 426.763C231.907 430.84 209.595 424.878 190.232 408.289C167.663 388.933 145.139 369.533 122.659 350.088C121.391 349.193 120.06 348.393 118.675 347.695L134.413 334.715C137.069 336.948 139.566 339.033 142.036 341.158C162.196 358.536 182.303 376.007 202.517 393.291C236.847 422.699 289.147 406.364 300.356 362.426C306.372 338.846 300.21 318.006 281.843 302.045C220.229 248.496 158.433 195.16 96.4564 142.038C76.3626 124.781 65.8044 103.419 66.1497 76.6847C66.6544 36.8633 99.3516 2.48242 138.862 0.169862C160.403 -1.10004 179.554 4.71477 195.969 18.8174C219.228 38.7347 242.425 58.719 265.56 78.77C266.849 79.8127 268.097 80.6949 269.717 81.9114Z" fill="#C6D7E3"/>
<path d="M371 335.986H351.881V134.833L350.461 134.032L269.591 200.824L133.423 88.2119L146.249 72.5424L269.604 174.481L371 90.7233V335.986Z" fill="#C6D7E3"/>
<path d="M20.1323 164.003V336.094H0.979758C-0.679336 327.145 -0.121882 125.639 1.82921 120.649L243.659 320.898L231.01 336.749L21.5525 163.401L20.1323 164.003Z" fill="#C6D7E3"/>
</g>
</svg>
