<svg width="181" height="138" viewBox="0 0 181 138" fill="none" xmlns="http://www.w3.org/2000/svg">
<g clip-path="url(#clip0)">
<path d="M111.895 20.8045L107.96 24.0551C107.08 23.3215 106.223 22.6218 105.383 21.9017C100.304 17.52 95.2252 13.1111 90.092 8.75994C84.285 3.82117 76.1382 3.80759 70.3718 8.66143C63.3966 14.5309 63.2611 25.4614 70.1889 31.5516C75.8707 36.5481 81.6777 41.402 87.417 46.3373C97.5209 55.0305 107.623 63.7226 117.722 72.4136C122.845 76.8292 125.398 82.342 125.31 89.1082C125.188 98.4593 117.861 106.937 108.647 108.432C102.255 109.468 96.5661 107.953 91.6292 103.738C85.8753 98.8193 80.1326 93.8896 74.4011 88.9486C74.0779 88.7212 73.7384 88.518 73.3853 88.3406L77.3978 85.0424C78.075 85.6096 78.7116 86.1395 79.3414 86.6796C84.4813 91.0953 89.6078 95.5347 94.7613 99.9266C103.514 107.399 116.848 103.249 119.706 92.0837C121.24 86.092 119.669 80.7966 114.986 76.7409C99.2771 63.1339 83.522 49.5811 67.7205 36.0828C62.5975 31.6977 59.9056 26.2698 59.9936 19.4764C60.1223 9.35775 68.4587 0.621509 78.5321 0.0338848C84.0242 -0.288799 88.9069 1.18875 93.092 4.77224C99.0221 9.83328 104.936 14.9113 110.835 20.0063C111.163 20.2713 111.482 20.4954 111.895 20.8045Z" fill="white"/>
<path d="M137.713 85.3823H132.837V34.2352L132.475 34.0314L111.851 51.0147L77.1235 22.3808L80.3944 18.3965L111.854 44.3165L137.713 23.0194V85.3823Z" fill="white"/>
<path d="M48.2306 41.6566V85.3547H43.3446C42.9213 83.0824 43.0635 31.9149 43.5613 30.6479L105.255 81.4961L102.028 85.5212L48.5929 41.5037L48.2306 41.6566Z" fill="white"/>
<path d="M104.858 136.852C104.391 133.571 103.944 130.398 103.504 127.243L103.186 127.164L96.5627 136.974L89.9193 127.144L89.6214 127.249L88.267 136.835H85.653L87.9351 119.512C91.0367 123.815 93.5763 128.105 96.5729 132.392L104.896 119.824L105.234 119.889C105.983 125.507 106.731 131.125 107.496 136.872L104.858 136.852Z" fill="white"/>
<path d="M144.56 120.368H147.113V138.003L134.537 125.82V136.859H131.967V119.627L144.56 131.788V120.368Z" fill="white"/>
<path d="M127.792 128.683C127.792 133.829 124.298 137.317 119.202 137.29C114.275 137.263 110.767 133.679 110.754 128.655C110.737 123.56 114.275 119.967 119.313 119.967C124.352 119.967 127.802 123.486 127.792 128.683ZM119.357 134.627C122.845 134.627 125.222 132.14 125.188 128.557C125.154 124.973 122.794 122.606 119.236 122.63C115.738 122.654 113.34 125.13 113.374 128.683C113.408 132.236 115.836 134.64 119.357 134.627Z" fill="white"/>
<path d="M174.462 136.868H171.807C171.807 135.568 171.885 134.331 171.78 133.112C171.728 132.284 171.509 131.475 171.136 130.734C169.257 127.337 167.293 123.978 165.262 120.435H168.282L173.124 128.798C174.817 125.887 176.381 123.19 178 120.408H181C180.479 121.332 180.021 122.154 179.554 122.969C178.149 125.418 176.778 127.888 175.318 130.299C174.677 131.295 174.372 132.472 174.448 133.655C174.516 134.698 174.462 135.758 174.462 136.868Z" fill="white"/>
<path d="M33.6436 136.872H32.3332C31.8817 132.742 31.4393 128.61 31.0059 124.478L30.6673 124.355L24.7214 133.428L18.7282 124.284L18.4437 124.376C18.0137 128.506 17.5871 132.636 17.1469 136.848L15.8365 136.906C16.3681 131.278 16.8895 125.782 17.411 120.283L17.6988 120.123L24.718 130.992L31.6932 120.215L32.0115 120.252L33.6436 136.872Z" fill="white"/>
<path d="M56.9666 130.894V136.838H55.6934V120.595C56.1539 120.554 56.6347 120.476 57.1122 120.48C59.1438 120.48 61.1754 120.408 63.207 120.568C65.7499 120.765 67.5411 122.433 67.7917 124.569C67.9668 125.783 67.7276 127.021 67.1128 128.081C66.4981 129.141 65.544 129.961 64.4057 130.408C63.9384 130.592 63.4508 130.721 62.8108 130.928L67.9339 136.875H66.1596L60.9045 130.894H56.9666ZM57.0411 129.44C59.0117 129.44 60.9147 129.515 62.7973 129.413C64.023 129.345 65.0151 128.642 65.7398 127.626C67.3041 125.432 66.356 122.477 63.7081 122.083C61.5377 121.743 59.2826 122.015 57.0174 122.015L57.0411 129.44Z" fill="white"/>
<path d="M11.9933 124.454L11.0486 124.529C9.42673 121.299 5.99329 120.225 2.98649 121.92C1.97069 122.491 1.35782 123.299 1.34766 124.488C1.32455 125.032 1.47671 125.57 1.78161 126.02C2.08651 126.471 2.52796 126.812 3.04067 126.991C4.17838 127.46 5.39396 127.742 6.56553 128.133C7.73709 128.523 8.96283 128.812 10.0464 129.383C12.3963 130.612 12.8229 133.798 10.9945 135.738C8.73936 138.116 3.58582 138.224 1.23254 135.921C0.450364 135.154 -0.0880092 134.25 0.0948362 132.959L1.05308 132.895C2.49891 135.986 5.71902 137.11 8.76983 135.633C9.9177 135.079 10.7066 134.253 10.7168 132.915C10.727 131.577 9.90754 130.704 8.71904 130.262C7.53055 129.821 6.34882 129.549 5.17049 129.175C4.20547 128.873 3.23706 128.574 2.29913 128.197C-0.656869 127.005 -0.565439 122.895 1.43909 121.282C3.80931 119.369 8.50572 119.342 10.7303 121.39C11.5938 122.161 12.1525 123.109 11.9933 124.454Z" fill="white"/>
<path d="M44.2452 119.723L52.1584 136.862H50.6651C48.5624 132.318 46.4563 127.776 44.2317 123L37.7982 136.876H36.305L44.2452 119.723Z" fill="white"/>
<path d="M82.8696 120.599L82.9678 121.76H77.6551V136.835L76.2296 136.92V121.913H70.9136L70.8086 120.599H82.8696Z" fill="white"/>
<path d="M151.379 122.895V120.422H162.323V122.895H151.379Z" fill="white"/>
<path d="M151.386 136.835V134.362H162.272C162.345 134.646 162.398 134.934 162.431 135.225C162.455 135.721 162.431 136.22 162.431 136.835H151.386Z" fill="white"/>
<path d="M151.437 127.1H161.493V129.536H151.437V127.1Z" fill="white"/>
</g>
<defs>
<clipPath id="clip0">
<rect width="181" height="138" fill="white"/>
</clipPath>
</defs>
</svg>
