<?xml version="1.0" encoding="utf-8"?>
<!-- Generator: Adobe Illustrator 25.4.1, SVG Export Plug-In . SVG Version: 6.00 Build 0)  -->
<svg version="1.1" id="Layer_1" xmlns="http://www.w3.org/2000/svg" xmlns:xlink="http://www.w3.org/1999/xlink" x="0px" y="0px"
	 viewBox="0 0 391 448" style="enable-background:new 0 0 391 448;" xml:space="preserve">
<style type="text/css">
	.st0{fill:#B9BABF;}
</style>
<g transform="translate(0.000000,500.000000) scale(0.100000,-0.100000)">
	<path class="st0" d="M1700,4813c-102-47-273-124-380-173c-107-48-346-156-530-240c-184-83-416-188-515-232s-184-84-188-88
		s10-14,31-24l38-17l310,152c170,83,422,207,559,274c502,246,880,435,870,434C1890,4898,1802,4860,1700,4813z"/>
	<path class="st0" d="M2005,4616c-168-77-643-292-1005-456c-118-53-291-132-383-174l-169-76l-105,45c-58,25-107,44-109,42
		c-8-8,1167-585,1684-828l102-48v-160c0-129-3-161-14-161c-7,0-87,34-177,76c-714,331-1599,723-1599,709c0-12,809-410,1648-810
		l142-68v-169c0-128-3-168-12-168c-7,0-42,14-78,31c-174,82-912,419-1140,519c-282,124-574,249-577,247c-9-9,1083-547,1617-797
		l185-86l3-167c2-131,0-167-10-167c-8,0-76,30-153,66c-129,60-214,99-565,259c-500,227-1051,468-1057,461c-9-9,1037-524,1582-779
		l200-94l3-166c2-110-1-167-8-167c-5,0-76,31-158,69c-529,247-1400,637-1589,712c-13,4-23,6-23,4c0-12,828-419,1658-815l122-59v-164
		c0-90-2-166-5-169s-104,39-223,94c-763,351-1560,704-1568,695c-8-8,902-456,1579-777l217-103V848c0-105-4-168-10-168
		c-5,0-103,43-217,96c-115,53-302,139-418,191c-115,53-262,119-325,148c-102,47-512,227-750,329c-46,20-80,32-75,27
		c13-12,727-368,1070-534c380-183,707-338,732-348c17-6,114,38,475,215c249,122,636,311,860,421c224,109,406,200,404,202
		c-1,2-169-72-372-163s-448-201-544-244s-251-113-345-155c-266-120-415-185-425-185c-7,0-10,441-10,1219v1219l93,50
		c81,44,522,273,1349,702c142,74,256,135,254,137c-1,2-74-31-162-73c-87-42-312-149-499-239c-659-316-871-417-966-461l-95-45
		l-169,78c-93,43-170,83-171,88c-2,6,187,103,419,217c1002,492,1178,580,1174,584c-2,2-113-46-248-107c-134-61-314-143-399-181
		c-424-191-564-255-789-357c-134-61-251-111-258-111c-8,0-79,30-159,67c-114,52-142,69-132,78c7,7,369,186,803,400
		c877,430,1003,497,555,292c-152-69-674-305-1055-477c-88-40-213-97-278-126c-65-30-123-54-130-54c-24,0-287,124-284,134
		c2,5,360,185,795,399c436,215,790,392,788,394s-79-31-172-73s-284-128-424-191c-140-64-284-129-320-145c-36-17-180-81-320-145
		c-140-63-299-135-353-160l-98-45l-134,58c-74,33-135,63-135,67c0,5,291,152,648,327c859,424,989,489,977,489
		C2170,4689,2093,4656,2005,4616z"/>
	<path class="st0" d="M3320,4170c-9-6-10-10-3-10c6,0,15,5,18,10C3343,4182,3339,4182,3320,4170z"/>
</g>
</svg>
