<svg width="489" height="416" viewBox="0 0 489 416" fill="none" xmlns="http://www.w3.org/2000/svg">
<g opacity="0.7">
<path opacity="0.7" d="M86.8253 368.406L127.326 345.016L168.819 340.741L201.659 359.706L230.767 358.547L255.991 343.977" stroke="#66A3FC" stroke-width="0.53" stroke-miterlimit="10"/>
<path opacity="0.7" d="M167.585 349.336L199.492 367.744L233.641 366.374L277.377 341.118" stroke="#66A3FC" stroke-width="0.53" stroke-miterlimit="10"/>
<path opacity="0.7" d="M257.887 344.79C257.374 345.049 256.807 345.184 256.232 345.184C255.657 345.184 255.09 345.049 254.576 344.79C254.376 344.723 254.202 344.594 254.079 344.423C253.956 344.251 253.889 344.045 253.889 343.834C253.889 343.623 253.956 343.417 254.079 343.246C254.202 343.074 254.376 342.946 254.576 342.879C255.09 342.619 255.657 342.484 256.232 342.484C256.807 342.484 257.374 342.619 257.887 342.879C258.087 342.946 258.261 343.074 258.384 343.246C258.508 343.417 258.574 343.623 258.574 343.834C258.574 344.045 258.508 344.251 258.384 344.423C258.261 344.594 258.087 344.723 257.887 344.79Z" fill="#66A3FC"/>
<path opacity="0.7" d="M279.274 341.93C278.763 342.197 278.195 342.336 277.618 342.336C277.042 342.336 276.474 342.197 275.963 341.93C275.763 341.863 275.589 341.735 275.466 341.563C275.342 341.392 275.276 341.186 275.276 340.975C275.276 340.764 275.342 340.558 275.466 340.386C275.589 340.215 275.763 340.086 275.963 340.019C276.476 339.76 277.043 339.625 277.618 339.625C278.193 339.625 278.76 339.76 279.274 340.019C279.474 340.086 279.648 340.215 279.771 340.386C279.894 340.558 279.961 340.764 279.961 340.975C279.961 341.186 279.894 341.392 279.771 341.563C279.648 341.735 279.474 341.863 279.274 341.93Z" fill="#66A3FC"/>
<path opacity="0.7" d="M235.417 367.262C234.904 367.522 234.337 367.657 233.762 367.657C233.187 367.657 232.619 367.522 232.106 367.262C231.906 367.195 231.732 367.066 231.609 366.895C231.486 366.723 231.419 366.518 231.419 366.306C231.419 366.095 231.486 365.889 231.609 365.718C231.732 365.547 231.906 365.418 232.106 365.351C232.619 365.091 233.187 364.956 233.762 364.956C234.337 364.956 234.904 365.091 235.417 365.351C235.617 365.418 235.791 365.547 235.914 365.718C236.038 365.889 236.104 366.095 236.104 366.306C236.104 366.518 236.038 366.723 235.914 366.895C235.791 367.066 235.617 367.195 235.417 367.262Z" fill="#66A3FC"/>
<path opacity="0.7" d="M232.422 359.496C231.909 359.755 231.342 359.89 230.767 359.89C230.191 359.89 229.624 359.755 229.111 359.496C228.911 359.428 228.737 359.3 228.614 359.128C228.491 358.957 228.424 358.751 228.424 358.54C228.424 358.329 228.491 358.123 228.614 357.951C228.737 357.78 228.911 357.651 229.111 357.584C229.624 357.325 230.191 357.19 230.767 357.19C231.342 357.19 231.909 357.325 232.422 357.584C232.622 357.651 232.796 357.78 232.919 357.951C233.043 358.123 233.109 358.329 233.109 358.54C233.109 358.751 233.043 358.957 232.919 359.128C232.796 359.3 232.622 359.428 232.422 359.496Z" fill="#66A3FC"/>
<path opacity="0.7" d="M170.37 341.825C169.856 342.084 169.289 342.219 168.714 342.219C168.139 342.219 167.572 342.084 167.059 341.825C166.858 341.758 166.684 341.629 166.561 341.458C166.438 341.286 166.372 341.08 166.372 340.869C166.372 340.658 166.438 340.452 166.561 340.281C166.684 340.109 166.858 339.981 167.059 339.913C167.572 339.654 168.139 339.519 168.714 339.519C169.289 339.519 169.856 339.654 170.37 339.913C170.57 339.981 170.744 340.109 170.867 340.281C170.99 340.452 171.056 340.658 171.056 340.869C171.056 341.08 170.99 341.286 170.867 341.458C170.744 341.629 170.57 341.758 170.37 341.825Z" fill="#66A3FC"/>
<path opacity="0.7" d="M169.226 350.284C168.712 350.543 168.145 350.678 167.57 350.678C166.995 350.678 166.428 350.543 165.915 350.284C165.715 350.217 165.541 350.088 165.418 349.917C165.294 349.745 165.228 349.539 165.228 349.328C165.228 349.117 165.294 348.911 165.418 348.74C165.541 348.568 165.715 348.44 165.915 348.372C166.428 348.113 166.995 347.978 167.57 347.978C168.145 347.978 168.712 348.113 169.226 348.372C169.426 348.44 169.6 348.568 169.723 348.74C169.846 348.911 169.913 349.117 169.913 349.328C169.913 349.539 169.846 349.745 169.723 349.917C169.6 350.088 169.426 350.217 169.226 350.284Z" fill="#66A3FC"/>
<path opacity="0.7" d="M88.4809 369.354C87.9649 369.614 87.3953 369.749 86.8178 369.749C86.2403 369.749 85.6708 369.614 85.1548 369.354C84.9547 369.287 84.7807 369.159 84.6575 368.987C84.5343 368.816 84.468 368.61 84.468 368.399C84.468 368.188 84.5343 367.982 84.6575 367.81C84.7807 367.639 84.9547 367.51 85.1548 367.443C85.6708 367.183 86.2403 367.048 86.8178 367.048C87.3953 367.048 87.9649 367.183 88.4809 367.443C88.681 367.51 88.8549 367.639 88.9781 367.81C89.1013 367.982 89.1676 368.188 89.1676 368.399C89.1676 368.61 89.1013 368.816 88.9781 368.987C88.8549 369.159 88.681 369.287 88.4809 369.354Z" fill="#66A3FC"/>
<path opacity="0.7" d="M344.953 401.264L304.453 377.874L262.959 373.599L230.119 392.564L201.012 391.39L175.788 376.835" stroke="#66A3FC" stroke-width="0.53" stroke-miterlimit="10"/>
<path opacity="0.7" d="M264.193 382.179L232.287 400.602L198.137 399.232L154.401 373.976" stroke="#66A3FC" stroke-width="0.53" stroke-miterlimit="10"/>
<path opacity="0.7" d="M173.846 377.648C174.36 377.908 174.927 378.043 175.502 378.043C176.077 378.043 176.644 377.908 177.157 377.648C177.357 377.581 177.531 377.452 177.655 377.281C177.778 377.109 177.844 376.904 177.844 376.692C177.844 376.481 177.778 376.275 177.655 376.104C177.531 375.933 177.357 375.804 177.157 375.737C176.644 375.477 176.077 375.342 175.502 375.342C174.927 375.342 174.36 375.477 173.846 375.737C173.646 375.804 173.472 375.933 173.349 376.104C173.226 376.275 173.16 376.481 173.16 376.692C173.16 376.904 173.226 377.109 173.349 377.281C173.472 377.452 173.646 377.581 173.846 377.648Z" fill="#66A3FC"/>
<path opacity="0.7" d="M152.49 374.788C153.003 375.047 153.57 375.182 154.145 375.182C154.721 375.182 155.288 375.047 155.801 374.788C156.001 374.721 156.175 374.592 156.298 374.421C156.421 374.249 156.488 374.044 156.488 373.832C156.488 373.621 156.421 373.415 156.298 373.244C156.175 373.072 156.001 372.944 155.801 372.877C155.288 372.617 154.721 372.482 154.145 372.482C153.57 372.482 153.003 372.617 152.49 372.877C152.29 372.944 152.116 373.072 151.993 373.244C151.869 373.415 151.803 373.621 151.803 373.832C151.803 374.044 151.869 374.249 151.993 374.421C152.116 374.592 152.29 374.721 152.49 374.788Z" fill="#66A3FC"/>
<path opacity="0.7" d="M196.422 400.12C196.935 400.38 197.502 400.515 198.077 400.515C198.652 400.515 199.219 400.38 199.733 400.12C199.933 400.053 200.107 399.925 200.23 399.753C200.353 399.582 200.42 399.376 200.42 399.165C200.42 398.953 200.353 398.748 200.23 398.576C200.107 398.405 199.933 398.276 199.733 398.209C199.222 397.942 198.654 397.803 198.077 397.803C197.501 397.803 196.933 397.942 196.422 398.209C196.222 398.276 196.048 398.405 195.925 398.576C195.801 398.748 195.735 398.953 195.735 399.165C195.735 399.376 195.801 399.582 195.925 399.753C196.048 399.925 196.222 400.053 196.422 400.12Z" fill="#66A3FC"/>
<path opacity="0.7" d="M201.012 392.745C202.309 392.745 203.36 392.138 203.36 391.39C203.36 390.642 202.309 390.036 201.012 390.036C199.715 390.036 198.664 390.642 198.664 391.39C198.664 392.138 199.715 392.745 201.012 392.745Z" fill="#66A3FC"/>
<path opacity="0.7" d="M261.394 374.683C261.907 374.942 262.474 375.077 263.05 375.077C263.625 375.077 264.192 374.942 264.705 374.683C264.905 374.616 265.079 374.487 265.202 374.316C265.326 374.144 265.392 373.938 265.392 373.727C265.392 373.516 265.326 373.31 265.202 373.139C265.079 372.967 264.905 372.839 264.705 372.771C264.192 372.512 263.625 372.377 263.05 372.377C262.474 372.377 261.907 372.512 261.394 372.771C261.194 372.839 261.02 372.967 260.897 373.139C260.774 373.31 260.707 373.516 260.707 373.727C260.707 373.938 260.774 374.144 260.897 374.316C261.02 374.487 261.194 374.616 261.394 374.683Z" fill="#66A3FC"/>
<path opacity="0.7" d="M262.538 383.142C263.051 383.401 263.618 383.536 264.193 383.536C264.768 383.536 265.336 383.401 265.849 383.142C266.049 383.075 266.223 382.946 266.346 382.775C266.469 382.603 266.536 382.397 266.536 382.186C266.536 381.975 266.469 381.769 266.346 381.598C266.223 381.426 266.049 381.298 265.849 381.23C265.336 380.971 264.768 380.836 264.193 380.836C263.618 380.836 263.051 380.971 262.538 381.23C262.338 381.298 262.164 381.426 262.041 381.598C261.917 381.769 261.851 381.975 261.851 382.186C261.851 382.397 261.917 382.603 262.041 382.775C262.164 382.946 262.338 383.075 262.538 383.142Z" fill="#66A3FC"/>
<path opacity="0.7" d="M343.298 402.213C343.811 402.472 344.378 402.607 344.953 402.607C345.529 402.607 346.096 402.472 346.609 402.213C346.809 402.145 346.983 402.017 347.106 401.845C347.229 401.674 347.296 401.468 347.296 401.257C347.296 401.046 347.229 400.84 347.106 400.668C346.983 400.497 346.809 400.368 346.609 400.301C346.096 400.042 345.529 399.907 344.953 399.907C344.378 399.907 343.811 400.042 343.298 400.301C343.098 400.368 342.924 400.497 342.801 400.668C342.678 400.84 342.611 401.046 342.611 401.257C342.611 401.468 342.678 401.674 342.801 401.845C342.924 402.017 343.098 402.145 343.298 402.213Z" fill="#66A3FC"/>
<path opacity="0.7" d="M199.492 344.308L159.007 320.933L117.498 316.643L84.6581 335.609L55.5508 334.434L30.3415 319.879" stroke="#66A3FC" stroke-width="0.53" stroke-miterlimit="10"/>
<path opacity="0.7" d="M118.747 325.223L86.8404 343.646L52.6761 342.276L8.93991 317.035" stroke="#66A3FC" stroke-width="0.53" stroke-miterlimit="10"/>
<path opacity="0.7" d="M28.415 320.692C28.9284 320.951 29.4955 321.087 30.0706 321.087C30.6457 321.087 31.2128 320.951 31.7261 320.692C31.9262 320.625 32.1002 320.496 32.2234 320.325C32.3466 320.153 32.4128 319.948 32.4128 319.736C32.4128 319.525 32.3466 319.319 32.2234 319.148C32.1002 318.976 31.9262 318.848 31.7261 318.781C31.2128 318.521 30.6457 318.386 30.0706 318.386C29.4955 318.386 28.9284 318.521 28.415 318.781C28.2149 318.848 28.041 318.976 27.9178 319.148C27.7946 319.319 27.7283 319.525 27.7283 319.736C27.7283 319.948 27.7946 320.153 27.9178 320.325C28.041 320.496 28.2149 320.625 28.415 320.692Z" fill="#66A3FC"/>
<path opacity="0.7" d="M7.02853 317.848C7.54188 318.107 8.10896 318.242 8.68407 318.242C9.25918 318.242 9.82622 318.107 10.3396 317.848C10.538 317.776 10.7096 317.646 10.8308 317.473C10.9521 317.301 11.0172 317.095 11.0172 316.884C11.0172 316.673 10.9521 316.468 10.8308 316.295C10.7096 316.123 10.538 315.992 10.3396 315.921C9.82622 315.662 9.25918 315.527 8.68407 315.527C8.10896 315.527 7.54188 315.662 7.02853 315.921C6.83014 315.992 6.65859 316.123 6.53731 316.295C6.41603 316.468 6.35092 316.673 6.35092 316.884C6.35092 317.095 6.41603 317.301 6.53731 317.473C6.65859 317.646 6.83014 317.776 7.02853 317.848Z" fill="#66A3FC"/>
<path opacity="0.7" d="M115.948 317.727C116.459 317.994 117.027 318.133 117.603 318.133C118.18 318.133 118.748 317.994 119.259 317.727C119.459 317.66 119.633 317.531 119.756 317.36C119.879 317.188 119.945 316.982 119.945 316.771C119.945 316.56 119.879 316.354 119.756 316.183C119.633 316.011 119.459 315.883 119.259 315.816C118.745 315.556 118.178 315.421 117.603 315.421C117.028 315.421 116.461 315.556 115.948 315.816C115.748 315.883 115.574 316.011 115.45 316.183C115.327 316.354 115.261 316.56 115.261 316.771C115.261 316.982 115.327 317.188 115.45 317.36C115.574 317.531 115.748 317.66 115.948 317.727Z" fill="#66A3FC"/>
<path opacity="0.7" d="M117.076 326.186C117.59 326.445 118.157 326.58 118.732 326.58C119.307 326.58 119.874 326.445 120.388 326.186C120.588 326.119 120.762 325.99 120.885 325.819C121.008 325.647 121.074 325.441 121.074 325.23C121.074 325.019 121.008 324.813 120.885 324.642C120.762 324.47 120.588 324.342 120.388 324.275C119.874 324.015 119.307 323.88 118.732 323.88C118.157 323.88 117.59 324.015 117.076 324.275C116.876 324.342 116.702 324.47 116.579 324.642C116.456 324.813 116.39 325.019 116.39 325.23C116.39 325.441 116.456 325.647 116.579 325.819C116.702 325.99 116.876 326.119 117.076 326.186Z" fill="#66A3FC"/>
<path opacity="0.7" d="M197.836 345.272C198.35 345.531 198.917 345.666 199.492 345.666C200.067 345.666 200.634 345.531 201.148 345.272C201.346 345.201 201.518 345.07 201.639 344.898C201.76 344.725 201.825 344.519 201.825 344.309C201.825 344.098 201.76 343.892 201.639 343.72C201.518 343.547 201.346 343.417 201.148 343.345C200.634 343.086 200.067 342.951 199.492 342.951C198.917 342.951 198.35 343.086 197.836 343.345C197.638 343.417 197.467 343.547 197.345 343.72C197.224 343.892 197.159 344.098 197.159 344.309C197.159 344.519 197.224 344.725 197.345 344.898C197.467 345.07 197.638 345.201 197.836 345.272Z" fill="#66A3FC"/>
</g>
<g opacity="0.7">
<path opacity="0.7" d="M486.652 266.1L446.152 242.724L404.658 238.45L371.818 257.415L342.711 256.241L317.487 241.671" stroke="#66A3FC" stroke-width="0.53" stroke-miterlimit="10"/>
<path opacity="0.7" d="M405.892 247.029L374 265.453L339.836 264.068L296.1 238.826" stroke="#66A3FC" stroke-width="0.53" stroke-miterlimit="10"/>
<path opacity="0.7" d="M315.575 242.484C316.088 242.743 316.656 242.878 317.231 242.878C317.806 242.878 318.373 242.743 318.886 242.484C319.086 242.416 319.26 242.288 319.383 242.116C319.507 241.945 319.573 241.739 319.573 241.528C319.573 241.317 319.507 241.111 319.383 240.939C319.26 240.768 319.086 240.639 318.886 240.572C318.373 240.313 317.806 240.178 317.231 240.178C316.656 240.178 316.088 240.313 315.575 240.572C315.375 240.639 315.201 240.768 315.078 240.939C314.955 241.111 314.888 241.317 314.888 241.528C314.888 241.739 314.955 241.945 315.078 242.116C315.201 242.288 315.375 242.416 315.575 242.484Z" fill="#66A3FC"/>
<path opacity="0.7" d="M294.249 239.639C294.762 239.898 295.329 240.033 295.904 240.033C296.479 240.033 297.047 239.898 297.56 239.639C297.76 239.572 297.934 239.443 298.057 239.272C298.18 239.1 298.247 238.894 298.247 238.683C298.247 238.472 298.18 238.266 298.057 238.095C297.934 237.923 297.76 237.795 297.56 237.727C297.047 237.468 296.479 237.333 295.904 237.333C295.329 237.333 294.762 237.468 294.249 237.727C294.049 237.795 293.875 237.923 293.752 238.095C293.628 238.266 293.562 238.472 293.562 238.683C293.562 238.894 293.628 239.1 293.752 239.272C293.875 239.443 294.049 239.572 294.249 239.639Z" fill="#66A3FC"/>
<path opacity="0.7" d="M338.045 264.956C338.559 265.215 339.126 265.35 339.701 265.35C340.276 265.35 340.843 265.215 341.356 264.956C341.556 264.889 341.73 264.76 341.854 264.589C341.977 264.417 342.043 264.211 342.043 264C342.043 263.789 341.977 263.583 341.854 263.412C341.73 263.24 341.556 263.112 341.356 263.044C340.843 262.785 340.276 262.65 339.701 262.65C339.126 262.65 338.559 262.785 338.045 263.044C337.845 263.112 337.671 263.24 337.548 263.412C337.425 263.583 337.359 263.789 337.359 264C337.359 264.211 337.425 264.417 337.548 264.589C337.671 264.76 337.845 264.889 338.045 264.956Z" fill="#66A3FC"/>
<path opacity="0.7" d="M341.04 257.189C341.551 257.456 342.119 257.595 342.696 257.595C343.272 257.595 343.84 257.456 344.351 257.189C345.269 256.662 345.269 255.82 344.351 255.278C343.838 255.018 343.271 254.883 342.696 254.883C342.121 254.883 341.554 255.018 341.04 255.278C340.84 255.345 340.666 255.474 340.543 255.645C340.42 255.817 340.354 256.022 340.354 256.233C340.354 256.445 340.42 256.65 340.543 256.822C340.666 256.993 340.84 257.122 341.04 257.189Z" fill="#66A3FC"/>
<path opacity="0.7" d="M403.093 239.534C403.606 239.793 404.173 239.928 404.748 239.928C405.323 239.928 405.891 239.793 406.404 239.534C406.604 239.466 406.778 239.338 406.901 239.166C407.024 238.995 407.091 238.789 407.091 238.578C407.091 238.367 407.024 238.161 406.901 237.989C406.778 237.818 406.604 237.689 406.404 237.622C405.891 237.363 405.323 237.228 404.748 237.228C404.173 237.228 403.606 237.363 403.093 237.622C402.893 237.689 402.719 237.818 402.596 237.989C402.472 238.161 402.406 238.367 402.406 238.578C402.406 238.789 402.472 238.995 402.596 239.166C402.719 239.338 402.893 239.466 403.093 239.534Z" fill="#66A3FC"/>
<path opacity="0.7" d="M404.237 247.978C404.748 248.244 405.316 248.383 405.892 248.383C406.469 248.383 407.037 248.244 407.548 247.978C407.748 247.91 407.922 247.782 408.045 247.61C408.168 247.439 408.234 247.233 408.234 247.022C408.234 246.811 408.168 246.605 408.045 246.433C407.922 246.262 407.748 246.133 407.548 246.066C407.034 245.807 406.467 245.672 405.892 245.672C405.317 245.672 404.75 245.807 404.237 246.066C404.037 246.133 403.863 246.262 403.739 246.433C403.616 246.605 403.55 246.811 403.55 247.022C403.55 247.233 403.616 247.439 403.739 247.61C403.863 247.782 404.037 247.91 404.237 247.978Z" fill="#66A3FC"/>
<path opacity="0.7" d="M484.997 267.138C485.51 267.398 486.077 267.533 486.652 267.533C487.227 267.533 487.794 267.398 488.308 267.138C488.508 267.071 488.682 266.943 488.805 266.771C488.928 266.6 488.994 266.394 488.994 266.183C488.994 265.972 488.928 265.766 488.805 265.594C488.682 265.423 488.508 265.294 488.308 265.227C487.794 264.968 487.227 264.833 486.652 264.833C486.077 264.833 485.51 264.968 484.997 265.227C484.797 265.294 484.623 265.423 484.499 265.594C484.376 265.766 484.31 265.972 484.31 266.183C484.31 266.394 484.376 266.6 484.499 266.771C484.623 266.943 484.797 267.071 484.997 267.138Z" fill="#66A3FC"/>
<path opacity="0.7" d="M288.68 301.502L329.181 278.126L370.674 273.852L403.529 292.817" stroke="#66A3FC" stroke-width="0.53" stroke-miterlimit="10"/>
<path opacity="0.7" d="M369.44 282.431L401.347 300.854" stroke="#66A3FC" stroke-width="0.53" stroke-miterlimit="10"/>
<path opacity="0.7" d="M372.225 274.935C371.711 275.194 371.144 275.329 370.569 275.329C369.994 275.329 369.427 275.194 368.913 274.935C368.713 274.868 368.539 274.739 368.416 274.568C368.293 274.396 368.227 274.191 368.227 273.979C368.227 273.768 368.293 273.562 368.416 273.391C368.539 273.219 368.713 273.091 368.913 273.024C369.427 272.764 369.994 272.629 370.569 272.629C371.144 272.629 371.711 272.764 372.225 273.024C372.425 273.091 372.599 273.219 372.722 273.391C372.845 273.562 372.911 273.768 372.911 273.979C372.911 274.191 372.845 274.396 372.722 274.568C372.599 274.739 372.425 274.868 372.225 274.935Z" fill="#66A3FC"/>
<path opacity="0.7" d="M371.096 283.394C370.582 283.653 370.015 283.789 369.44 283.789C368.865 283.789 368.298 283.653 367.785 283.394C367.585 283.327 367.411 283.198 367.287 283.027C367.164 282.855 367.098 282.65 367.098 282.438C367.098 282.227 367.164 282.021 367.287 281.85C367.411 281.678 367.585 281.55 367.785 281.483C368.298 281.223 368.865 281.088 369.44 281.088C370.015 281.088 370.582 281.223 371.096 281.483C371.296 281.55 371.47 281.678 371.593 281.85C371.716 282.021 371.783 282.227 371.783 282.438C371.783 282.65 371.716 282.855 371.593 283.027C371.47 283.198 371.296 283.327 371.096 283.394Z" fill="#66A3FC"/>
<path opacity="0.7" d="M290.336 302.465C289.822 302.724 289.255 302.859 288.68 302.859C288.105 302.859 287.538 302.724 287.025 302.465C286.825 302.398 286.651 302.269 286.527 302.098C286.404 301.926 286.338 301.72 286.338 301.509C286.338 301.298 286.404 301.092 286.527 300.921C286.651 300.749 286.825 300.621 287.025 300.553C287.538 300.294 288.105 300.159 288.68 300.159C289.255 300.159 289.822 300.294 290.336 300.553C290.536 300.621 290.71 300.749 290.833 300.921C290.956 301.092 291.022 301.298 291.022 301.509C291.022 301.72 290.956 301.926 290.833 302.098C290.71 302.269 290.536 302.398 290.336 302.465Z" fill="#66A3FC"/>
<path opacity="0.7" d="M293.406 324.787L333.891 301.411L375.4 297.136L408.24 316.102" stroke="#66A3FC" stroke-width="0.53" stroke-miterlimit="10"/>
<path opacity="0.7" d="M374.151 305.716L406.058 324.139" stroke="#66A3FC" stroke-width="0.53" stroke-miterlimit="10"/>
<path opacity="0.7" d="M376.935 298.22C376.422 298.48 375.855 298.615 375.28 298.615C374.705 298.615 374.138 298.48 373.624 298.22C373.424 298.153 373.25 298.024 373.127 297.853C373.004 297.681 372.937 297.476 372.938 297.264C372.938 297.053 373.004 296.847 373.127 296.676C373.25 296.505 373.424 296.376 373.624 296.309C374.138 296.049 374.705 295.914 375.28 295.914C375.855 295.914 376.422 296.049 376.935 296.309C377.135 296.376 377.309 296.505 377.433 296.676C377.556 296.847 377.622 297.053 377.622 297.264C377.622 297.476 377.556 297.681 377.433 297.853C377.309 298.024 377.135 298.153 376.935 298.22Z" fill="#66A3FC"/>
<path opacity="0.7" d="M375.807 306.679C375.293 306.939 374.726 307.074 374.151 307.074C373.576 307.074 373.009 306.939 372.495 306.679C372.295 306.612 372.121 306.483 371.998 306.312C371.875 306.14 371.809 305.935 371.809 305.723C371.809 305.512 371.875 305.306 371.998 305.135C372.121 304.963 372.295 304.835 372.495 304.768C373.007 304.501 373.575 304.362 374.151 304.362C374.728 304.362 375.295 304.501 375.807 304.768C376.007 304.835 376.181 304.963 376.304 305.135C376.427 305.306 376.493 305.512 376.493 305.723C376.493 305.935 376.427 306.14 376.304 306.312C376.181 306.483 376.007 306.612 375.807 306.679Z" fill="#66A3FC"/>
<path opacity="0.7" d="M295.046 325.75C294.533 326.009 293.966 326.144 293.391 326.144C292.816 326.144 292.249 326.009 291.735 325.75C291.535 325.682 291.361 325.554 291.238 325.382C291.115 325.211 291.049 325.005 291.049 324.794C291.049 324.583 291.115 324.377 291.238 324.206C291.361 324.034 291.535 323.906 291.735 323.838C292.249 323.579 292.816 323.444 293.391 323.444C293.966 323.444 294.533 323.579 295.046 323.838C295.247 323.906 295.421 324.034 295.544 324.206C295.667 324.377 295.733 324.583 295.733 324.794C295.733 325.005 295.667 325.211 295.544 325.382C295.421 325.554 295.247 325.682 295.046 325.75Z" fill="#66A3FC"/>
</g>
<g opacity="0.7">
<path opacity="0.7" d="M81.1363 190.736L121.637 214.111L163.13 218.386L195.985 199.436L225.093 200.594L250.302 215.165" stroke="#66A3FC" stroke-width="0.53" stroke-miterlimit="10"/>
<path opacity="0.7" d="M161.896 209.806L193.803 191.383L227.967 192.768L271.688 218.009" stroke="#66A3FC" stroke-width="0.53" stroke-miterlimit="10"/>
<path opacity="0.7" d="M252.213 214.352C251.7 214.093 251.133 213.958 250.558 213.958C249.983 213.958 249.416 214.093 248.902 214.352C248.702 214.419 248.528 214.548 248.405 214.719C248.282 214.891 248.215 215.097 248.215 215.308C248.215 215.519 248.282 215.725 248.405 215.896C248.528 216.068 248.702 216.196 248.902 216.263C249.416 216.523 249.983 216.658 250.558 216.658C251.133 216.658 251.7 216.523 252.213 216.263C252.413 216.196 252.587 216.068 252.71 215.896C252.834 215.725 252.9 215.519 252.9 215.308C252.9 215.097 252.834 214.891 252.71 214.719C252.587 214.548 252.413 214.419 252.213 214.352Z" fill="#66A3FC"/>
<path opacity="0.7" d="M273.6 217.197C273.084 216.937 272.514 216.802 271.937 216.802C271.359 216.802 270.79 216.937 270.274 217.197C270.074 217.264 269.9 217.392 269.776 217.564C269.653 217.735 269.587 217.941 269.587 218.152C269.587 218.364 269.653 218.569 269.776 218.741C269.9 218.912 270.074 219.041 270.274 219.108C270.788 219.375 271.358 219.514 271.937 219.514C272.516 219.514 273.086 219.375 273.6 219.108C273.8 219.041 273.974 218.912 274.097 218.741C274.22 218.569 274.287 218.364 274.287 218.152C274.287 217.941 274.22 217.735 274.097 217.564C273.974 217.392 273.8 217.264 273.6 217.197Z" fill="#66A3FC"/>
<path opacity="0.7" d="M229.743 191.88C229.23 191.62 228.663 191.485 228.088 191.485C227.513 191.485 226.945 191.62 226.432 191.88C226.232 191.947 226.058 192.076 225.935 192.247C225.812 192.419 225.745 192.624 225.745 192.836C225.745 193.047 225.812 193.253 225.935 193.424C226.058 193.595 226.232 193.724 226.432 193.791C226.945 194.051 227.513 194.186 228.088 194.186C228.663 194.186 229.23 194.051 229.743 193.791C229.943 193.724 230.117 193.595 230.24 193.424C230.364 193.253 230.43 193.047 230.43 192.836C230.43 192.624 230.364 192.419 230.24 192.247C230.117 192.076 229.943 191.947 229.743 191.88Z" fill="#66A3FC"/>
<path opacity="0.7" d="M226.733 199.646C226.22 199.387 225.653 199.252 225.078 199.252C224.502 199.252 223.935 199.387 223.422 199.646C223.222 199.714 223.048 199.842 222.925 200.014C222.802 200.185 222.735 200.391 222.735 200.602C222.735 200.813 222.802 201.019 222.925 201.191C223.048 201.362 223.222 201.491 223.422 201.558C223.935 201.817 224.502 201.952 225.078 201.952C225.653 201.952 226.22 201.817 226.733 201.558C226.933 201.491 227.107 201.362 227.23 201.191C227.354 201.019 227.42 200.813 227.42 200.602C227.42 200.391 227.354 200.185 227.23 200.014C227.107 199.842 226.933 199.714 226.733 199.646Z" fill="#66A3FC"/>
<path opacity="0.7" d="M164.681 217.317C164.169 217.051 163.602 216.911 163.025 216.911C162.449 216.911 161.881 217.051 161.37 217.317C160.452 217.844 160.452 218.687 161.37 219.229C161.883 219.488 162.45 219.623 163.025 219.623C163.6 219.623 164.167 219.488 164.681 219.229C165.599 218.687 165.599 217.844 164.681 217.317Z" fill="#66A3FC"/>
<path opacity="0.7" d="M163.552 208.858C163.039 208.599 162.471 208.464 161.896 208.464C161.321 208.464 160.754 208.599 160.241 208.858C160.041 208.925 159.867 209.054 159.744 209.225C159.62 209.397 159.554 209.603 159.554 209.814C159.554 210.025 159.62 210.231 159.744 210.402C159.867 210.574 160.041 210.702 160.241 210.77C160.754 211.029 161.321 211.164 161.896 211.164C162.471 211.164 163.039 211.029 163.552 210.77C163.752 210.702 163.926 210.574 164.049 210.402C164.172 210.231 164.239 210.025 164.239 209.814C164.239 209.603 164.172 209.397 164.049 209.225C163.926 209.054 163.752 208.925 163.552 208.858Z" fill="#66A3FC"/>
<path opacity="0.7" d="M82.7918 189.772C82.2785 189.513 81.7114 189.378 81.1363 189.378C80.5612 189.378 79.9941 189.513 79.4808 189.772C79.2824 189.844 79.1108 189.974 78.9895 190.147C78.8683 190.319 78.8032 190.525 78.8032 190.736C78.8032 190.946 78.8683 191.152 78.9895 191.325C79.1108 191.497 79.2824 191.628 79.4808 191.699C79.9941 191.958 80.5612 192.093 81.1363 192.093C81.7114 192.093 82.2785 191.958 82.7918 191.699C82.9902 191.628 83.1618 191.497 83.2831 191.325C83.4043 191.152 83.4694 190.946 83.4694 190.736C83.4694 190.525 83.4043 190.319 83.2831 190.147C83.1618 189.974 82.9902 189.844 82.7918 189.772Z" fill="#66A3FC"/>
<path opacity="0.7" d="M339.264 157.878L298.779 181.253L257.27 185.543L224.43 166.578L195.323 167.737L170.114 182.307" stroke="#66A3FC" stroke-width="0.53" stroke-miterlimit="10"/>
<path opacity="0.7" d="M258.519 176.948L226.613 158.54L192.448 159.91L148.712 185.152" stroke="#66A3FC" stroke-width="0.53" stroke-miterlimit="10"/>
<path opacity="0.7" d="M168.187 181.494C168.701 181.235 169.268 181.1 169.843 181.1C170.418 181.1 170.985 181.235 171.498 181.494C171.699 181.561 171.872 181.69 171.996 181.861C172.119 182.033 172.185 182.239 172.185 182.45C172.185 182.661 172.119 182.867 171.996 183.038C171.872 183.21 171.699 183.338 171.498 183.406C170.985 183.665 170.418 183.8 169.843 183.8C169.268 183.8 168.701 183.665 168.187 183.406C167.987 183.338 167.813 183.21 167.69 183.038C167.567 182.867 167.501 182.661 167.501 182.45C167.501 182.239 167.567 182.033 167.69 181.861C167.813 181.69 167.987 181.561 168.187 181.494Z" fill="#66A3FC"/>
<path opacity="0.7" d="M146.756 184.354C147.267 184.087 147.835 183.948 148.411 183.948C148.988 183.948 149.556 184.087 150.067 184.354C150.985 184.881 150.985 185.724 150.067 186.265C149.553 186.525 148.986 186.66 148.411 186.66C147.836 186.66 147.269 186.525 146.756 186.265C145.883 185.724 145.883 184.881 146.756 184.354Z" fill="#66A3FC"/>
<path opacity="0.7" d="M190.658 159.022C191.171 158.762 191.738 158.627 192.313 158.627C192.888 158.627 193.455 158.762 193.969 159.022C194.169 159.089 194.343 159.217 194.466 159.389C194.589 159.56 194.655 159.766 194.655 159.977C194.655 160.189 194.589 160.394 194.466 160.566C194.343 160.737 194.169 160.866 193.969 160.933C193.455 161.192 192.888 161.328 192.313 161.328C191.738 161.328 191.171 161.192 190.658 160.933C190.457 160.866 190.283 160.737 190.16 160.566C190.037 160.394 189.971 160.189 189.971 159.977C189.971 159.766 190.037 159.56 190.16 159.389C190.283 159.217 190.457 159.089 190.658 159.022Z" fill="#66A3FC"/>
<path opacity="0.7" d="M193.668 166.788C194.181 166.529 194.748 166.394 195.323 166.394C195.898 166.394 196.465 166.529 196.979 166.788C197.179 166.856 197.353 166.984 197.476 167.156C197.599 167.327 197.665 167.533 197.665 167.744C197.665 167.955 197.599 168.161 197.476 168.333C197.353 168.504 197.179 168.633 196.979 168.7C196.465 168.959 195.898 169.094 195.323 169.094C194.748 169.094 194.181 168.959 193.668 168.7C193.467 168.633 193.293 168.504 193.17 168.333C193.047 168.161 192.981 167.955 192.981 167.744C192.981 167.533 193.047 167.327 193.17 167.156C193.293 166.984 193.467 166.856 193.668 166.788Z" fill="#66A3FC"/>
<path opacity="0.7" d="M255.72 184.459C256.233 184.2 256.8 184.065 257.376 184.065C257.951 184.065 258.518 184.2 259.031 184.459C259.231 184.526 259.405 184.655 259.528 184.826C259.652 184.998 259.718 185.204 259.718 185.415C259.718 185.626 259.652 185.832 259.528 186.003C259.405 186.175 259.231 186.303 259.031 186.371C258.518 186.63 257.951 186.765 257.376 186.765C256.8 186.765 256.233 186.63 255.72 186.371C255.52 186.303 255.346 186.175 255.223 186.003C255.1 185.832 255.033 185.626 255.033 185.415C255.033 185.204 255.1 184.998 255.223 184.826C255.346 184.655 255.52 184.526 255.72 184.459Z" fill="#66A3FC"/>
<path opacity="0.7" d="M256.849 176C257.362 175.741 257.929 175.606 258.504 175.606C259.079 175.606 259.647 175.741 260.16 176C260.36 176.067 260.534 176.196 260.657 176.367C260.78 176.539 260.847 176.745 260.847 176.956C260.847 177.167 260.78 177.373 260.657 177.544C260.534 177.716 260.36 177.844 260.16 177.912C259.647 178.171 259.079 178.306 258.504 178.306C257.929 178.306 257.362 178.171 256.849 177.912C256.649 177.844 256.475 177.716 256.352 177.544C256.228 177.373 256.162 177.167 256.162 176.956C256.162 176.745 256.228 176.539 256.352 176.367C256.475 176.196 256.649 176.067 256.849 176Z" fill="#66A3FC"/>
<path opacity="0.7" d="M337.609 156.93C338.12 156.663 338.688 156.524 339.264 156.524C339.841 156.524 340.409 156.663 340.92 156.93C341.838 157.456 341.838 158.299 340.92 158.841C340.407 159.1 339.839 159.235 339.264 159.235C338.689 159.235 338.122 159.1 337.609 158.841C336.691 158.299 336.691 157.456 337.609 156.93Z" fill="#66A3FC"/>
<path opacity="0.7" d="M193.818 214.833L153.318 238.209L111.824 242.484L78.9841 223.518L49.8617 224.692L24.6524 239.262" stroke="#66A3FC" stroke-width="0.53" stroke-miterlimit="10"/>
<path opacity="0.7" d="M113.058 233.904L81.1513 215.481L47.0022 216.85L3.26593 242.107" stroke="#66A3FC" stroke-width="0.53" stroke-miterlimit="10"/>
<path opacity="0.7" d="M22.726 238.45C23.242 238.19 23.8115 238.055 24.3891 238.055C24.9666 238.055 25.5361 238.19 26.0521 238.45C26.2522 238.517 26.4261 238.646 26.5493 238.817C26.6725 238.989 26.7388 239.194 26.7388 239.406C26.7388 239.617 26.6725 239.823 26.5493 239.994C26.4261 240.165 26.2522 240.294 26.0521 240.361C25.5361 240.621 24.9666 240.756 24.3891 240.756C23.8115 240.756 23.242 240.621 22.726 240.361C22.5259 240.294 22.3519 240.165 22.2287 239.994C22.1055 239.823 22.0393 239.617 22.0393 239.406C22.0393 239.194 22.1055 238.989 22.2287 238.817C22.3519 238.646 22.5259 238.517 22.726 238.45Z" fill="#66A3FC"/>
<path opacity="0.7" d="M1.35456 241.295C1.86791 241.035 2.43495 240.9 3.01006 240.9C3.58517 240.9 4.15225 241.035 4.6656 241.295C4.86571 241.362 5.03963 241.49 5.16284 241.662C5.28605 241.833 5.35235 242.039 5.35235 242.25C5.35235 242.461 5.28605 242.667 5.16284 242.839C5.03963 243.01 4.86571 243.139 4.6656 243.206C4.15225 243.465 3.58517 243.6 3.01006 243.6C2.43495 243.6 1.86791 243.465 1.35456 243.206C1.15445 243.139 0.98053 243.01 0.857323 242.839C0.734116 242.667 0.667816 242.461 0.667816 242.25C0.667816 242.039 0.734116 241.833 0.857323 241.662C0.98053 241.49 1.15445 241.362 1.35456 241.295Z" fill="#66A3FC"/>
<path opacity="0.7" d="M46.8667 218.295C48.1634 218.295 49.2146 217.689 49.2146 216.941C49.2146 216.193 48.1634 215.586 46.8667 215.586C45.57 215.586 44.5189 216.193 44.5189 216.941C44.5189 217.689 45.57 218.295 46.8667 218.295Z" fill="#66A3FC"/>
<path opacity="0.7" d="M48.2062 223.744C48.7195 223.485 49.2866 223.35 49.8617 223.35C50.4368 223.35 51.0039 223.485 51.5173 223.744C51.7174 223.812 51.8913 223.94 52.0145 224.112C52.1377 224.283 52.204 224.489 52.204 224.7C52.204 224.911 52.1377 225.117 52.0145 225.289C51.8913 225.46 51.7174 225.588 51.5173 225.656C51.0039 225.915 50.4368 226.05 49.8617 226.05C49.2866 226.05 48.7195 225.915 48.2062 225.656C48.0061 225.588 47.8321 225.46 47.7089 225.289C47.5857 225.117 47.5195 224.911 47.5195 224.7C47.5195 224.489 47.5857 224.283 47.7089 224.112C47.8321 223.94 48.0061 223.812 48.2062 223.744Z" fill="#66A3FC"/>
<path opacity="0.7" d="M110.259 241.4C110.772 241.14 111.339 241.005 111.914 241.005C112.489 241.005 113.056 241.14 113.57 241.4C114.488 241.942 114.488 242.784 113.57 243.311C113.059 243.578 112.491 243.717 111.914 243.717C111.338 243.717 110.77 243.578 110.259 243.311C109.341 242.784 109.341 241.942 110.259 241.4Z" fill="#66A3FC"/>
<path opacity="0.7" d="M111.387 232.956C111.901 232.696 112.468 232.561 113.043 232.561C113.618 232.561 114.185 232.696 114.699 232.956C114.899 233.023 115.073 233.151 115.196 233.323C115.319 233.494 115.385 233.7 115.385 233.911C115.385 234.123 115.319 234.328 115.196 234.5C115.073 234.671 114.899 234.8 114.699 234.867C114.185 235.127 113.618 235.262 113.043 235.262C112.468 235.262 111.901 235.127 111.387 234.867C111.187 234.8 111.013 234.671 110.89 234.5C110.767 234.328 110.701 234.123 110.701 233.911C110.701 233.7 110.767 233.494 110.89 233.323C111.013 233.151 111.187 233.023 111.387 232.956Z" fill="#66A3FC"/>
<path opacity="0.7" d="M192.147 213.87C192.661 213.611 193.228 213.476 193.803 213.476C194.378 213.476 194.945 213.611 195.459 213.87C195.659 213.938 195.833 214.066 195.956 214.238C196.079 214.409 196.145 214.615 196.145 214.826C196.145 215.037 196.079 215.243 195.956 215.414C195.833 215.586 195.659 215.714 195.459 215.782C194.945 216.041 194.378 216.176 193.803 216.176C193.228 216.176 192.661 216.041 192.147 215.782C191.947 215.714 191.773 215.586 191.65 215.414C191.527 215.243 191.461 215.037 191.461 214.826C191.461 214.615 191.527 214.409 191.65 214.238C191.773 214.066 191.947 213.938 192.147 213.87Z" fill="#66A3FC"/>
</g>
<path style="mix-blend-mode:multiply" opacity="0.04" d="M103.682 128.346C89.5645 135.36 66.688 135.36 52.5106 128.346C38.3332 121.332 38.4084 109.953 52.5106 102.939C66.6127 95.9249 89.5043 95.9249 103.682 102.939C117.859 109.953 117.784 121.332 103.682 128.346Z" fill="url(#paint0_radial)"/>
<path d="M101.951 105.829V112.331C101.951 115.793 99.6632 119.255 95.088 121.889C85.9374 127.172 71.0977 127.172 61.9772 121.889C57.4622 119.255 55.1143 115.793 55.1143 112.331V105.438" stroke="#FF4B36" stroke-width="0.19" stroke-miterlimit="10"/>
<path d="M56.5892 111.308V117.042C56.8213 117.415 57.0778 117.772 57.3568 118.111V111.262L56.5892 111.308Z" fill="#FF4B36"/>
<path d="M59.2682 114.092V120.023L60.0508 120.64V114.062L59.2682 114.092Z" fill="#FF4B36"/>
<path d="M61.9622 115.868V121.889L62.7448 122.295V115.823L61.9622 115.868Z" fill="#FF4B36"/>
<path d="M64.6562 117.268V123.214L65.4388 123.545V117.238L64.6562 117.268Z" fill="#FF4B36"/>
<path d="M67.3502 118.126V124.147L68.1328 124.388V118.126H67.3502Z" fill="#FF4B36"/>
<path d="M69.9991 118.819V124.93L70.7816 125.095V118.773L69.9991 118.819Z" fill="#FF4B36"/>
<path d="M73.4456 119.436H72.7382V125.456L73.5208 125.562V119.541L73.4456 119.436Z" fill="#FF4B36"/>
<path d="M75.4322 119.436V125.727H76.2148V119.375L75.4322 119.436Z" fill="#FF4B36"/>
<path d="M78.1262 119.436V125.848H78.9089V119.436H78.1262Z" fill="#FF4B36"/>
<path d="M80.8203 119.436V125.787H81.6028V119.496L80.8203 119.436Z" fill="#FF4B36"/>
<path d="M83.5443 119.436V125.456L84.3269 125.351V119.33L83.5443 119.436Z" fill="#FF4B36"/>
<path d="M86.2082 118.788V125.095L86.9909 124.929V118.788H86.2082Z" fill="#FF4B36"/>
<path d="M88.9023 118.126V124.463L89.6848 124.222V118.201L88.9023 118.126Z" fill="#FF4B36"/>
<path d="M91.5963 116.952V123.545L92.3789 123.214V116.952H91.5963Z" fill="#FF4B36"/>
<path d="M94.2903 115.913V122.31L95.0729 121.904V115.883L94.2903 115.913Z" fill="#FF4B36"/>
<path d="M96.9843 114.077V120.64L97.7669 120.023V114.077H96.9843Z" fill="#FF4B36"/>
<path d="M99.6783 111.278V118.126C99.9573 117.784 100.218 117.427 100.461 117.057V111.293L99.6783 111.278Z" fill="#FF4B36"/>
<path d="M95.088 115.628C85.9374 120.911 71.0977 120.911 61.9772 115.628C52.8567 110.344 52.8266 101.78 61.9772 96.4968C71.1278 91.2136 85.9675 91.2136 95.088 96.4968C104.208 101.78 104.239 110.344 95.088 115.628Z" stroke="#FF4B36" stroke-width="0.19" stroke-miterlimit="10"/>
<path d="M92.9959 113.791C85.0042 118.397 72.0458 118.397 64.0541 113.791C56.0624 109.185 56.0624 101.75 64.0541 97.0837C72.0458 92.4177 85.0493 92.5381 92.9959 97.0536C100.942 101.569 100.988 109.17 92.9959 113.791Z" stroke="#FF4B36" stroke-width="0.19" stroke-miterlimit="10"/>
<path d="M76.0192 98.0922L73.0091 96.3914L70.3001 97.8965L73.0091 99.4017L70.3001 100.907L67.591 99.4017L64.8819 100.907L67.591 102.412L64.8819 103.917L78.4272 111.744L81.1363 110.239L83.8453 111.744L86.5695 110.239L83.8453 108.734L86.5695 107.229L89.2785 108.734L91.9875 107.229L88.9775 105.513C89.1786 105.299 89.3332 105.046 89.4314 104.769C89.5297 104.492 89.5695 104.198 89.5482 103.905C89.527 103.612 89.4453 103.327 89.3082 103.068C89.1711 102.808 88.9816 102.58 88.7517 102.397C87.4397 101.329 85.7927 100.759 84.1012 100.786C84.1012 99.6877 82.9724 98.6792 81.3319 98.1073C79.599 97.5935 77.755 97.5883 76.0192 98.0922V98.0922ZM70.3452 104.218L77.1179 100.305C77.538 100.093 78.0019 99.9828 78.4724 99.9828C78.9428 99.9828 79.4067 100.093 79.8269 100.305C80.5794 100.726 80.5794 101.434 79.8269 101.81L73.0542 105.723L70.3452 104.218ZM85.245 105.001L78.4724 108.914L75.7633 107.409L82.5359 103.496C82.9561 103.284 83.42 103.174 83.8905 103.174C84.361 103.174 84.8249 103.284 85.245 103.496C86.0427 103.857 86.0427 104.58 85.2902 105.001H85.245Z" stroke="#FF4B36" stroke-width="0.19" stroke-miterlimit="10"/>
<path d="M242.701 104.248C242.701 111.097 240.685 116.29 237.283 119.3C234.503 121.517 231.565 123.529 228.494 125.321C223.979 127.127 223.467 122.687 217.161 119.044C203.044 110.901 191.575 91.0931 191.575 74.8071C191.575 68.5908 187.452 67.6575 190.296 64.5418C191.034 63.7441 197.626 59.1684 198.529 58.5211C203.179 55.5108 209.786 55.7667 217.116 60.0263C231.263 68.1543 242.701 88.0226 242.701 104.248Z" fill="#FFE3C1"/>
<path d="M229.217 124.903C239.194 119.142 239.196 100.466 229.222 83.1879C219.248 65.91 203.074 56.5735 193.097 62.3343C183.12 68.0951 183.117 86.7717 193.092 104.05C203.066 121.328 219.24 130.664 229.217 124.903Z" fill="#FFE3C1"/>
<path d="M227.06 121.246C235.885 116.15 235.887 99.629 227.064 84.3453C218.241 69.0615 203.934 60.8025 195.108 65.8983C186.283 70.9941 186.281 87.5149 195.105 102.799C203.928 118.082 218.235 126.342 227.06 121.246Z" stroke="#FF4B36" stroke-width="0.69" stroke-miterlimit="10"/>
<path d="M218.124 86.1111V80.8882L213.985 78.4949V83.2814L209.832 80.8882V76.1017L205.693 73.7085V78.4949L201.554 76.1017V100.064L205.693 102.457V107.244L209.832 109.637V104.851L213.985 107.244V112.03L218.124 114.423V109.095C218.562 109.195 219.016 109.204 219.458 109.121C219.9 109.038 220.32 108.864 220.691 108.612C221.063 108.359 221.378 108.032 221.617 107.651C221.857 107.271 222.015 106.845 222.083 106.401C222.498 103.851 221.991 101.236 220.653 99.0255C222.052 98.0772 222.594 95.9248 222.083 93.3058C221.486 90.5755 220.111 88.0766 218.124 86.1111ZM205.693 83.2814L216.047 89.3021C216.651 89.6971 217.154 90.2284 217.514 90.8533C217.875 91.4782 218.084 92.1791 218.124 92.8995C218.124 94.209 217.191 94.7508 216.047 94.0885L205.693 88.0678V83.2814ZM215.987 103.616L205.633 97.5956V92.8242L215.987 98.8449C216.59 99.2375 217.092 99.7663 217.452 100.389C217.813 101.011 218.023 101.709 218.064 102.427C218.124 103.737 217.191 104.279 215.987 103.616Z" fill="white"/>
<path d="M213.128 342.532L106.918 281.392C102.177 278.653 102.056 264.278 103.983 259.417L203.586 207.759C209.064 204.598 217.432 204.252 222.188 206.992L330.806 262.322C334.794 268.613 332.552 283.545 327.059 286.721L231.73 341.765C226.252 344.926 217.884 345.272 213.128 342.532Z" fill="url(#paint1_linear)"/>
<path d="M213.128 326.728L106.917 265.633C102.177 262.894 102.764 258.107 108.257 254.901L203.586 199.857C209.064 196.696 217.432 196.35 222.188 199.089L328.398 260.23C333.139 262.969 332.552 267.755 327.058 270.962L231.73 326.006C226.251 329.136 217.883 329.483 213.128 326.728Z" fill="#EAEAFE"/>
<path d="M212.41 323.993L110.475 265.459C105.322 262.49 105.976 257.303 111.931 253.828L202.365 201.835C208.32 198.41 217.415 198.034 222.585 201.003L324.519 259.489C329.673 262.458 329.035 267.645 323.063 271.12L232.63 323.194C226.675 326.587 217.579 326.963 212.41 323.993Z" fill="#141830"/>
<path style="mix-blend-mode:multiply" opacity="0.1" d="M216.755 298.22C257.035 298.22 289.689 282.316 289.689 262.698C289.689 243.08 257.035 227.176 216.755 227.176C176.474 227.176 143.821 243.08 143.821 262.698C143.821 282.316 176.474 298.22 216.755 298.22Z" fill="url(#paint2_radial)"/>
<path style="mix-blend-mode:multiply" opacity="0.1" d="M261.785 281.633C237.81 293.313 198.92 293.313 174.945 281.633C150.97 269.953 150.97 251.003 174.945 239.323C198.92 227.642 237.81 227.642 261.785 239.323C285.76 251.003 285.76 269.953 261.785 281.633Z" fill="url(#paint3_radial)"/>
<path d="M165.629 236.794L272.652 237.682V252.523C272.652 260.44 267.429 268.342 256.984 274.378C236.079 286.419 202.201 286.419 181.296 274.378C170.851 268.357 165.629 260.44 165.629 252.523V236.794Z" fill="#FFE3C1"/>
<mask id="mask0" mask-type="alpha" maskUnits="userSpaceOnUse" x="166" y="237" width="108" height="47">
<path d="M166 237L273.023 237.888V252.729C273.023 260.646 267.8 268.548 257.355 274.584C236.451 286.626 202.572 286.626 181.667 274.584C171.222 268.563 166 260.646 166 252.729V237Z" fill="url(#paint4_linear)"/>
</mask>
<g mask="url(#mask0)">
<path d="M170.821 234.913H169.03V285.2H170.821V234.913Z" fill="white"/>
<path d="M176.977 234.913H175.186V285.2H176.977V234.913Z" fill="white"/>
<path d="M183.132 234.913H181.341V285.2H183.132V234.913Z" fill="white"/>
<path d="M189.288 234.913H187.497V285.2H189.288V234.913Z" fill="white"/>
<path d="M195.443 234.913H193.652V285.2H195.443V234.913Z" fill="white"/>
<path d="M201.584 234.913H199.793V285.2H201.584V234.913Z" fill="white"/>
<path d="M207.74 234.913H205.949V285.2H207.74V234.913Z" fill="white"/>
<path d="M213.895 234.913H212.104V285.2H213.895V234.913Z" fill="white"/>
<path d="M220.051 234.913H218.26V285.2H220.051V234.913Z" fill="white"/>
<path d="M226.206 234.913H224.415V285.2H226.206V234.913Z" fill="white"/>
<path d="M232.347 234.913H230.556V285.2H232.347V234.913Z" fill="white"/>
<path d="M238.502 234.913H236.711V285.2H238.502V234.913Z" fill="white"/>
<path d="M244.658 234.913H242.867V285.2H244.658V234.913Z" fill="white"/>
<path d="M250.814 234.913H249.023V285.2H250.814V234.913Z" fill="white"/>
<path d="M256.954 234.913H255.163V285.2H256.954V234.913Z" fill="white"/>
<path d="M263.11 234.913H261.319V285.2H263.11V234.913Z" fill="white"/>
<path d="M269.265 234.913H267.474V285.2H269.265V234.913Z" fill="white"/>
</g>
<path d="M219.148 269.125C248.705 269.125 272.667 255.29 272.667 238.224C272.667 221.158 248.705 207.323 219.148 207.323C189.59 207.323 165.629 221.158 165.629 238.224C165.629 255.29 189.59 269.125 219.148 269.125Z" fill="#FFE3C1"/>
<path d="M219.148 263.782C244.965 263.782 265.894 251.699 265.894 236.794C265.894 221.889 244.965 209.806 219.148 209.806C193.33 209.806 172.401 221.889 172.401 236.794C172.401 251.699 193.33 263.782 219.148 263.782Z" stroke="#66A3FC" stroke-width="1.19" stroke-miterlimit="10"/>
<path d="M213.519 220.026L206.761 216.128L200.561 219.695L206.761 223.278L200.561 226.845L194.375 223.278L188.174 226.845L194.375 230.427L188.174 234.024L219.148 251.906L225.333 248.339L231.519 251.906L237.72 248.339L231.519 244.756L237.72 241.189L243.905 244.756L250.106 241.189L243.334 237.276C243.792 236.785 244.144 236.205 244.368 235.572C244.592 234.939 244.683 234.266 244.635 233.597C244.587 232.927 244.401 232.274 244.089 231.68C243.777 231.085 243.346 230.561 242.822 230.141C239.828 227.707 236.069 226.411 232.211 226.484C232.016 223.955 229.638 221.652 225.86 220.357C221.866 219.051 217.578 218.936 213.519 220.026ZM200.561 234.024L215.987 225.069C216.944 224.579 218.005 224.323 219.08 224.323C220.155 224.323 221.215 224.579 222.173 225.069C222.546 225.194 222.871 225.434 223.101 225.754C223.332 226.074 223.455 226.458 223.455 226.852C223.455 227.246 223.332 227.631 223.101 227.951C222.871 228.271 222.546 228.51 222.173 228.636L206.701 237.577L200.561 234.024ZM234.619 235.816L219.148 244.756L212.977 241.159L228.464 232.218C229.421 231.728 230.481 231.473 231.557 231.473C232.632 231.473 233.692 231.728 234.65 232.218C235.022 232.347 235.345 232.589 235.572 232.911C235.8 233.233 235.92 233.618 235.917 234.013C235.914 234.407 235.787 234.79 235.554 235.108C235.321 235.426 234.994 235.663 234.619 235.786V235.816Z" fill="white"/>
<path d="M165.629 219.229L272.652 220.117V234.973C272.652 242.875 267.429 250.792 256.984 256.828C236.079 268.869 202.201 268.869 181.296 256.828C170.851 250.807 165.629 242.875 165.629 234.973V219.229Z" fill="#FFE3C1"/>
<path d="M176.977 217.347H175.186V267.635H176.977V217.347Z" fill="white"/>
<path d="M183.132 217.347H181.341V267.635H183.132V217.347Z" fill="white"/>
<path d="M189.288 217.347H187.497V267.635H189.288V217.347Z" fill="white"/>
<path d="M195.444 217.347H193.653V267.635H195.444V217.347Z" fill="white"/>
<path d="M201.584 217.347H199.793V267.635H201.584V217.347Z" fill="white"/>
<path d="M207.74 217.347H205.949V267.635H207.74V217.347Z" fill="white"/>
<path d="M213.895 217.347H212.104V267.635H213.895V217.347Z" fill="white"/>
<path d="M220.051 217.347H218.26V267.635H220.051V217.347Z" fill="white"/>
<path d="M226.206 217.347H224.415V267.635H226.206V217.347Z" fill="white"/>
<path d="M232.347 217.347H230.556V267.635H232.347V217.347Z" fill="white"/>
<path d="M238.502 217.347H236.711V267.635H238.502V217.347Z" fill="white"/>
<path d="M244.658 217.347H242.867V267.635H244.658V217.347Z" fill="white"/>
<path d="M250.814 217.347H249.023V267.635H250.814V217.347Z" fill="white"/>
<path d="M256.954 217.347H255.163V267.635H256.954V217.347Z" fill="white"/>
<path d="M263.11 217.347H261.319V267.635H263.11V217.347Z" fill="white"/>
<path d="M219.148 246.216C244.965 246.216 265.894 234.134 265.894 219.229C265.894 204.324 244.965 192.241 219.148 192.241C193.33 192.241 172.401 204.324 172.401 219.229C172.401 234.134 193.33 246.216 219.148 246.216Z" stroke="#66A3FC" stroke-width="1.19" stroke-miterlimit="10"/>
<path d="M213.519 202.416L206.761 198.502L200.561 202.085L206.761 205.652L200.561 209.234L194.375 205.652L188.174 209.234L194.375 212.802L188.174 216.384L219.148 234.326L225.333 230.743L231.519 234.326L237.72 230.743L231.519 227.176L237.72 223.594L243.905 227.176L250.106 223.594L243.334 219.695C243.792 219.205 244.144 218.625 244.368 217.992C244.592 217.359 244.683 216.686 244.635 216.016C244.587 215.347 244.401 214.694 244.089 214.099C243.777 213.505 243.346 212.981 242.822 212.561C239.832 210.119 236.07 208.823 232.211 208.903C232.016 206.375 229.638 204.072 225.86 202.777C221.87 201.453 217.58 201.327 213.519 202.416ZM200.561 216.384L215.987 207.503C216.947 207.021 218.006 206.77 219.08 206.77C220.154 206.77 221.213 207.021 222.173 207.503C222.545 207.633 222.867 207.875 223.095 208.196C223.323 208.517 223.446 208.901 223.446 209.295C223.446 209.688 223.323 210.072 223.095 210.393C222.867 210.714 222.545 210.956 222.173 211.086L206.701 220.026L200.561 216.384ZM234.619 218.175L219.148 227.116L212.977 223.594L228.464 214.653C229.424 214.171 230.483 213.92 231.557 213.92C232.631 213.92 233.69 214.171 234.65 214.653C235.02 214.785 235.341 215.03 235.566 215.353C235.792 215.676 235.911 216.061 235.908 216.455C235.904 216.849 235.779 217.232 235.548 217.551C235.317 217.87 234.992 218.109 234.619 218.235V218.175Z" fill="white"/>
<path d="M165.629 201.678L272.652 202.566V217.468C272.652 225.385 267.429 233.287 256.984 239.323C236.079 251.364 202.201 251.364 181.296 239.323C170.851 233.302 165.629 225.385 165.629 217.468V201.678Z" fill="#FFE3C1"/>
<path d="M170.821 199.797H169.03V250.085H170.821V199.797Z" fill="white"/>
<path d="M176.977 199.797H175.186V250.085H176.977V199.797Z" fill="white"/>
<path d="M183.132 199.797H181.341V250.085H183.132V199.797Z" fill="white"/>
<path d="M189.288 199.797H187.497V250.085H189.288V199.797Z" fill="white"/>
<path d="M195.443 199.797H193.652V250.085H195.443V199.797Z" fill="white"/>
<path d="M201.584 199.797H199.793V250.085H201.584V199.797Z" fill="white"/>
<path d="M207.74 199.797H205.949V250.085H207.74V199.797Z" fill="white"/>
<path d="M213.895 199.797H212.104V250.085H213.895V199.797Z" fill="white"/>
<path d="M220.051 199.797H218.26V250.085H220.051V199.797Z" fill="white"/>
<path d="M226.206 199.797H224.415V250.085H226.206V199.797Z" fill="white"/>
<path d="M232.347 199.797H230.556V250.085H232.347V199.797Z" fill="white"/>
<path d="M238.502 199.797H236.711V250.085H238.502V199.797Z" fill="white"/>
<path d="M244.658 199.797H242.867V250.085H244.658V199.797Z" fill="white"/>
<path d="M250.814 199.797H249.023V250.085H250.814V199.797Z" fill="white"/>
<path d="M256.954 199.797H255.163V250.085H256.954V199.797Z" fill="white"/>
<path d="M263.11 199.797H261.319V250.085H263.11V199.797Z" fill="white"/>
<path d="M269.265 199.797H267.474V250.085H269.265V199.797Z" fill="white"/>
<path d="M252.198 220.764C233.942 231.3 204.338 231.3 186.082 220.764C167.826 210.228 167.841 193.129 186.082 182.593C204.323 172.057 233.942 172.057 252.198 182.593C270.454 193.129 270.454 210.213 252.198 220.764Z" stroke="#66A3FC" stroke-width="1.19" stroke-miterlimit="10"/>
<path d="M213.519 184.911L206.761 181.012L200.561 184.579L206.761 188.162L200.561 191.729L194.375 188.162L188.174 191.729L194.375 195.311L188.174 198.894L219.148 216.76L225.333 213.193L231.519 216.76L237.72 213.193L231.519 209.611L237.72 206.043L243.905 209.611L250.106 206.043L243.334 202.13C243.792 201.641 244.144 201.062 244.368 200.43C244.591 199.798 244.682 199.127 244.634 198.458C244.586 197.79 244.4 197.138 244.088 196.545C243.776 195.951 243.345 195.429 242.822 195.01C239.834 192.565 236.072 191.263 232.211 191.338C232.016 188.809 229.638 186.506 225.86 185.212C221.863 183.915 217.575 183.811 213.519 184.911ZM200.561 198.894L215.987 189.953C216.944 189.463 218.005 189.207 219.08 189.207C220.155 189.207 221.215 189.463 222.173 189.953C222.546 190.078 222.871 190.318 223.101 190.638C223.332 190.958 223.455 191.342 223.455 191.737C223.455 192.131 223.332 192.515 223.101 192.835C222.871 193.155 222.546 193.395 222.173 193.52L206.761 202.416L200.561 198.894ZM234.619 200.67L219.148 209.611L212.977 206.043L228.464 197.103C229.421 196.612 230.481 196.357 231.557 196.357C232.632 196.357 233.692 196.612 234.65 197.103C235.022 197.231 235.345 197.474 235.572 197.795C235.8 198.117 235.92 198.503 235.917 198.897C235.914 199.291 235.787 199.674 235.554 199.992C235.321 200.311 234.994 200.548 234.619 200.67Z" fill="white"/>
<path d="M165.629 184.113L272.652 185.001V199.857C272.652 207.759 267.429 215.677 256.984 221.712C236.079 233.754 202.201 233.754 181.296 221.712C170.851 215.692 165.629 207.759 165.629 199.857V184.113Z" fill="#FFE3C1"/>
<path d="M170.821 182.231H169.03V232.519H170.821V182.231Z" fill="white"/>
<path d="M176.977 182.231H175.186V232.519H176.977V182.231Z" fill="white"/>
<path d="M183.132 182.231H181.341V232.519H183.132V182.231Z" fill="white"/>
<path d="M189.288 182.231H187.497V232.519H189.288V182.231Z" fill="white"/>
<path d="M195.443 182.231H193.652V232.519H195.443V182.231Z" fill="white"/>
<path d="M201.584 182.231H199.793V232.519H201.584V182.231Z" fill="white"/>
<path d="M207.74 182.231H205.949V232.519H207.74V182.231Z" fill="white"/>
<path d="M213.895 182.231H212.104V232.519H213.895V182.231Z" fill="white"/>
<path d="M220.051 182.231H218.26V232.519H220.051V182.231Z" fill="white"/>
<path d="M226.206 182.231H224.415V232.519H226.206V182.231Z" fill="white"/>
<path d="M232.347 182.231H230.556V232.519H232.347V182.231Z" fill="white"/>
<path d="M238.502 182.231H236.711V232.519H238.502V182.231Z" fill="white"/>
<path d="M244.658 182.231H242.867V232.519H244.658V182.231Z" fill="white"/>
<path d="M250.814 182.231H249.023V232.519H250.814V182.231Z" fill="white"/>
<path d="M256.954 182.231H255.163V232.519H256.954V182.231Z" fill="white"/>
<path d="M263.11 182.231H261.319V232.519H263.11V182.231Z" fill="white"/>
<path d="M269.265 182.231H267.474V232.519H269.265V182.231Z" fill="white"/>
<path d="M219.148 211.101C244.965 211.101 265.894 199.018 265.894 184.113C265.894 169.208 244.965 157.125 219.148 157.125C193.33 157.125 172.401 169.208 172.401 184.113C172.401 199.018 193.33 211.101 219.148 211.101Z" stroke="#66A3FC" stroke-width="1.19" stroke-miterlimit="10"/>
<path d="M213.519 167.36L206.761 163.447L200.561 167.029L206.761 170.596L200.561 174.179L194.375 170.596L188.174 174.179L194.375 177.761L188.174 181.343L219.148 199.225L225.333 195.642L231.519 199.225L237.72 195.642L231.519 192.075L237.72 188.493L243.905 192.075L250.106 188.493L243.334 184.594C243.792 184.104 244.144 183.524 244.368 182.891C244.592 182.258 244.683 181.585 244.635 180.916C244.587 180.246 244.401 179.593 244.089 178.998C243.777 178.404 243.346 177.88 242.822 177.46C239.832 175.018 236.07 173.722 232.211 173.802C232.016 171.274 229.638 168.971 225.86 167.676C221.866 166.367 217.575 166.257 213.519 167.36ZM200.561 181.343L215.987 172.388C216.947 171.906 218.006 171.655 219.08 171.655C220.154 171.655 221.213 171.906 222.173 172.388C222.545 172.517 222.867 172.759 223.095 173.08C223.323 173.401 223.446 173.785 223.446 174.179C223.446 174.572 223.323 174.956 223.095 175.277C222.867 175.598 222.545 175.84 222.173 175.97L206.701 184.911L200.561 181.343ZM234.619 183.134L219.148 192.075L212.977 188.478L228.464 179.537C229.424 179.055 230.483 178.804 231.557 178.804C232.631 178.804 233.69 179.055 234.65 179.537C235.02 179.67 235.341 179.914 235.566 180.237C235.792 180.56 235.911 180.945 235.908 181.339C235.904 181.733 235.779 182.116 235.548 182.435C235.317 182.754 234.992 182.993 234.619 183.119V183.134Z" fill="white"/>
<path d="M165.629 166.562L272.652 167.451V182.292C272.652 190.209 267.429 198.111 256.984 204.147C236.079 216.188 202.201 216.188 181.296 204.147C170.851 198.126 165.629 190.209 165.629 182.292V166.562Z" fill="#FFE3C1"/>
<path d="M170.821 164.681H169.03V214.969H170.821V164.681Z" fill="white"/>
<path d="M176.977 164.681H175.186V214.969H176.977V164.681Z" fill="white"/>
<path d="M183.132 164.681H181.341V214.969H183.132V164.681Z" fill="white"/>
<path d="M189.288 164.681H187.497V214.969H189.288V164.681Z" fill="white"/>
<path d="M195.443 164.681H193.652V214.969H195.443V164.681Z" fill="white"/>
<path d="M201.584 164.681H199.793V214.969H201.584V164.681Z" fill="white"/>
<path d="M207.74 164.681H205.949V214.969H207.74V164.681Z" fill="white"/>
<path d="M213.895 164.681H212.104V214.969H213.895V164.681Z" fill="white"/>
<path d="M220.051 164.681H218.26V214.969H220.051V164.681Z" fill="white"/>
<path d="M226.206 164.681H224.415V214.969H226.206V164.681Z" fill="white"/>
<path d="M232.347 164.681H230.556V214.969H232.347V164.681Z" fill="white"/>
<path d="M238.502 164.681H236.711V214.969H238.502V164.681Z" fill="white"/>
<path d="M244.658 164.681H242.867V214.969H244.658V164.681Z" fill="white"/>
<path d="M250.814 164.681H249.023V214.969H250.814V164.681Z" fill="white"/>
<path d="M256.954 164.681H255.163V214.969H256.954V164.681Z" fill="white"/>
<path d="M263.11 164.681H261.319V214.969H263.11V164.681Z" fill="white"/>
<path d="M269.265 164.681H267.474V214.969H269.265V164.681Z" fill="white"/>
<path d="M256.984 189.848C236.079 201.889 202.201 201.889 181.296 189.848C160.391 177.806 160.391 158.239 181.296 146.198C202.201 134.156 236.079 134.156 256.984 146.198C277.889 158.239 277.889 177.776 256.984 189.848Z" fill="#FFE3C1"/>
<path d="M219.148 193.55C244.965 193.55 265.894 181.468 265.894 166.563C265.894 151.658 244.965 139.575 219.148 139.575C193.33 139.575 172.401 151.658 172.401 166.563C172.401 181.468 193.33 193.55 219.148 193.55Z" stroke="#FF4B36" stroke-width="1.19" stroke-miterlimit="10"/>
<path d="M213.519 149.735L206.761 145.836L200.561 149.404L206.761 152.986L200.561 156.568L194.375 152.986L188.174 156.568L194.375 160.136L188.174 163.718L219.148 181.645L225.333 178.077L231.519 181.645L237.72 178.077L231.519 174.495L237.72 170.928L243.905 174.495L250.106 170.928L243.334 167.014C243.792 166.525 244.144 165.946 244.368 165.314C244.591 164.682 244.682 164.011 244.634 163.343C244.586 162.674 244.4 162.023 244.088 161.429C243.776 160.836 243.345 160.313 242.822 159.895C239.834 157.449 236.072 156.147 232.211 156.222C232.016 153.693 229.638 151.391 225.86 150.096C221.869 148.78 217.58 148.654 213.519 149.735ZM200.561 163.718L215.987 154.837C216.944 154.347 218.005 154.092 219.08 154.092C220.155 154.092 221.215 154.347 222.173 154.837C222.546 154.963 222.871 155.202 223.101 155.523C223.332 155.843 223.455 156.227 223.455 156.621C223.455 157.015 223.332 157.399 223.101 157.719C222.871 158.039 222.546 158.279 222.173 158.405L206.701 167.345L200.561 163.718ZM234.619 165.494L219.148 174.435L212.977 170.928L228.464 161.987C229.421 161.497 230.481 161.241 231.557 161.241C232.632 161.241 233.692 161.497 234.65 161.987C235.022 162.116 235.345 162.358 235.572 162.68C235.8 163.002 235.92 163.387 235.917 163.781C235.914 164.176 235.787 164.559 235.554 164.877C235.321 165.195 234.994 165.432 234.619 165.554V165.494Z" fill="white"/>
<g opacity="0.5">
<path opacity="0.5" d="M276.128 98.6492H275.842C275.743 98.6492 275.662 98.73 275.662 98.8298V99.1158C275.662 99.2155 275.743 99.2964 275.842 99.2964H276.128C276.228 99.2964 276.309 99.2155 276.309 99.1158V98.8298C276.309 98.73 276.228 98.6492 276.128 98.6492Z" fill="white"/>
<path opacity="0.5" d="M272.923 143.232H272.637C272.537 143.232 272.456 143.313 272.456 143.413V143.699C272.456 143.799 272.537 143.88 272.637 143.88H272.923C273.022 143.88 273.103 143.799 273.103 143.699V143.413C273.103 143.313 273.022 143.232 272.923 143.232Z" fill="white"/>
<path opacity="0.5" d="M252.514 133.554H252.228C252.129 133.554 252.048 133.635 252.048 133.735V134.021C252.048 134.121 252.129 134.201 252.228 134.201H252.514C252.614 134.201 252.695 134.121 252.695 134.021V133.735C252.695 133.635 252.614 133.554 252.514 133.554Z" fill="white"/>
<path opacity="0.5" d="M238.818 136.73H238.533C238.433 136.73 238.352 136.811 238.352 136.911V137.197C238.352 137.296 238.433 137.377 238.533 137.377H238.818C238.918 137.377 238.999 137.296 238.999 137.197V136.911C238.999 136.811 238.918 136.73 238.818 136.73Z" fill="white"/>
<path opacity="0.5" d="M231.73 123.244L231.474 123.123C231.452 123.114 231.432 123.1 231.416 123.082C231.4 123.065 231.387 123.044 231.378 123.022C231.37 122.999 231.366 122.975 231.367 122.952C231.368 122.928 231.374 122.904 231.384 122.882L231.489 122.627C231.499 122.605 231.513 122.585 231.53 122.569C231.548 122.552 231.568 122.539 231.591 122.531C231.613 122.523 231.637 122.519 231.661 122.52C231.685 122.521 231.708 122.526 231.73 122.536L231.986 122.642C232.028 122.664 232.061 122.7 232.08 122.744C232.1 122.787 232.103 122.836 232.091 122.882L231.971 123.138C231.951 123.183 231.915 123.218 231.871 123.237C231.826 123.257 231.776 123.259 231.73 123.244Z" fill="white"/>
<path opacity="0.5" d="M221.235 149.579L220.973 149.465C220.881 149.426 220.775 149.468 220.735 149.559L220.622 149.821C220.582 149.913 220.624 150.019 220.715 150.059L220.978 150.173C221.069 150.212 221.176 150.17 221.215 150.079L221.329 149.817C221.369 149.725 221.327 149.619 221.235 149.579Z" fill="white"/>
<path opacity="0.5" d="M204.398 111.368L204.128 111.262C204.106 111.253 204.086 111.239 204.07 111.221C204.053 111.204 204.04 111.183 204.032 111.161C204.024 111.139 204.02 111.115 204.021 111.091C204.022 111.067 204.027 111.043 204.037 111.022L204.143 110.751C204.165 110.709 204.202 110.677 204.246 110.66C204.29 110.644 204.339 110.644 204.383 110.66L204.654 110.781C204.678 110.789 204.699 110.802 204.717 110.819C204.734 110.836 204.748 110.857 204.757 110.88C204.765 110.903 204.769 110.927 204.767 110.952C204.765 110.977 204.757 111 204.745 111.022L204.624 111.277C204.616 111.299 204.604 111.318 204.588 111.334C204.571 111.351 204.552 111.364 204.531 111.372C204.51 111.381 204.487 111.385 204.464 111.384C204.441 111.383 204.419 111.378 204.398 111.368Z" fill="white"/>
<path opacity="0.5" d="M177.05 122.986L176.788 122.872C176.696 122.832 176.59 122.874 176.55 122.966L176.436 123.228C176.396 123.32 176.438 123.426 176.53 123.466L176.792 123.58C176.884 123.62 176.99 123.578 177.03 123.486L177.144 123.224C177.183 123.132 177.141 123.026 177.05 122.986Z" fill="white"/>
<path opacity="0.5" d="M190.539 163.555L190.277 163.442C190.185 163.402 190.079 163.444 190.039 163.535L189.925 163.798C189.886 163.889 189.928 163.995 190.019 164.035L190.281 164.149C190.373 164.189 190.479 164.147 190.519 164.055L190.633 163.793C190.672 163.702 190.631 163.595 190.539 163.555Z" fill="white"/>
<path opacity="0.5" d="M195.729 135.91L195.467 135.796C195.375 135.756 195.269 135.798 195.229 135.89L195.115 136.152C195.076 136.243 195.118 136.35 195.209 136.389L195.471 136.503C195.563 136.543 195.669 136.501 195.709 136.41L195.823 136.147C195.863 136.056 195.821 135.95 195.729 135.91Z" fill="white"/>
<path opacity="0.5" d="M176.736 103.074L176.48 102.954C176.458 102.944 176.438 102.93 176.422 102.913C176.406 102.895 176.393 102.875 176.385 102.853C176.376 102.83 176.372 102.806 176.373 102.782C176.374 102.758 176.38 102.735 176.39 102.713L176.495 102.457C176.505 102.436 176.519 102.416 176.536 102.399C176.554 102.383 176.574 102.37 176.597 102.362C176.619 102.353 176.643 102.35 176.667 102.35C176.691 102.351 176.714 102.357 176.736 102.367L177.007 102.472C177.048 102.495 177.08 102.532 177.097 102.576C177.114 102.62 177.114 102.669 177.097 102.713L176.977 102.984C176.967 103.006 176.953 103.026 176.936 103.042C176.918 103.059 176.898 103.071 176.875 103.08C176.853 103.088 176.829 103.092 176.805 103.091C176.781 103.09 176.758 103.085 176.736 103.074Z" fill="white"/>
<path opacity="0.5" d="M155.122 129.437L154.86 129.323C154.768 129.283 154.662 129.325 154.622 129.417L154.509 129.679C154.469 129.771 154.511 129.877 154.602 129.917L154.865 130.03C154.956 130.07 155.062 130.028 155.102 129.937L155.216 129.674C155.256 129.583 155.214 129.476 155.122 129.437Z" fill="white"/>
<path opacity="0.5" d="M154.823 109.547L154.567 109.441C154.525 109.419 154.491 109.383 154.472 109.339C154.453 109.295 154.449 109.246 154.461 109.2L154.582 108.929C154.604 108.888 154.641 108.856 154.685 108.839C154.73 108.823 154.778 108.823 154.823 108.839L155.079 108.96C155.102 108.967 155.123 108.98 155.141 108.997C155.159 109.014 155.172 109.035 155.181 109.058C155.19 109.081 155.193 109.106 155.191 109.131C155.189 109.155 155.181 109.179 155.169 109.2L155.063 109.456C155.054 109.478 155.04 109.498 155.022 109.514C155.005 109.531 154.984 109.543 154.962 109.552C154.94 109.56 154.916 109.564 154.892 109.563C154.868 109.562 154.844 109.557 154.823 109.547Z" fill="white"/>
<path opacity="0.5" d="M290.066 122.602L289.804 122.488C289.713 122.448 289.606 122.49 289.567 122.582L289.453 122.844C289.413 122.936 289.455 123.042 289.546 123.082L289.809 123.196C289.9 123.235 290.007 123.193 290.046 123.102L290.16 122.839C290.2 122.748 290.158 122.641 290.066 122.602Z" fill="white"/>
<path opacity="0.5" d="M291.778 109.058L291.515 108.944C291.424 108.905 291.318 108.946 291.278 109.038L291.164 109.3C291.124 109.392 291.166 109.498 291.258 109.538L291.52 109.652C291.611 109.692 291.718 109.65 291.758 109.558L291.871 109.296C291.911 109.204 291.869 109.098 291.778 109.058Z" fill="white"/>
<path opacity="0.5" d="M264.946 128.282L264.683 128.168C264.592 128.129 264.485 128.171 264.446 128.262L264.332 128.524C264.292 128.616 264.334 128.722 264.426 128.762L264.688 128.876C264.779 128.916 264.886 128.874 264.925 128.782L265.039 128.52C265.079 128.428 265.037 128.322 264.946 128.282Z" fill="white"/>
<path opacity="0.5" d="M253.606 104.45L253.343 104.337C253.252 104.297 253.145 104.339 253.106 104.43L252.992 104.693C252.952 104.784 252.994 104.891 253.086 104.93L253.348 105.044C253.439 105.084 253.546 105.042 253.586 104.95L253.699 104.688C253.739 104.596 253.697 104.49 253.606 104.45Z" fill="white"/>
<path opacity="0.5" d="M223.437 174.013H223.151C223.051 174.013 222.971 174.094 222.971 174.194V174.48C222.971 174.58 223.051 174.66 223.151 174.66H223.437C223.537 174.66 223.618 174.58 223.618 174.48V174.194C223.618 174.094 223.537 174.013 223.437 174.013Z" fill="white"/>
<path opacity="0.5" d="M257.646 152.444L257.376 152.324C257.354 152.314 257.334 152.3 257.318 152.283C257.301 152.265 257.288 152.245 257.28 152.222C257.272 152.2 257.268 152.176 257.269 152.152C257.27 152.128 257.275 152.105 257.285 152.083L257.391 151.827C257.4 151.805 257.414 151.785 257.432 151.769C257.449 151.753 257.47 151.74 257.492 151.731C257.515 151.723 257.538 151.719 257.562 151.72C257.586 151.721 257.61 151.727 257.631 151.737L257.902 151.842C257.924 151.852 257.944 151.866 257.96 151.883C257.977 151.901 257.989 151.921 257.998 151.944C258.006 151.966 258.01 151.99 258.009 152.014C258.008 152.038 258.003 152.061 257.993 152.083L257.872 152.339C257.855 152.382 257.822 152.417 257.78 152.437C257.738 152.456 257.69 152.459 257.646 152.444Z" fill="white"/>
<path opacity="0.5" d="M177.413 141.411L177.157 141.306C177.136 141.296 177.116 141.282 177.099 141.265C177.083 141.247 177.07 141.227 177.062 141.204C177.053 141.182 177.05 141.158 177.05 141.134C177.051 141.11 177.057 141.087 177.067 141.065L177.172 140.809C177.195 140.767 177.231 140.733 177.274 140.714C177.318 140.695 177.367 140.691 177.413 140.704L177.669 140.824C177.711 140.846 177.745 140.882 177.764 140.926C177.783 140.97 177.787 141.019 177.774 141.065L177.654 141.321C177.644 141.343 177.63 141.362 177.613 141.379C177.595 141.395 177.575 141.408 177.553 141.416C177.53 141.425 177.506 141.429 177.482 141.428C177.458 141.427 177.435 141.421 177.413 141.411Z" fill="white"/>
<path opacity="0.5" d="M236.891 165.568L236.629 165.454C236.537 165.414 236.431 165.456 236.391 165.548L236.278 165.81C236.238 165.902 236.28 166.008 236.371 166.048L236.634 166.162C236.725 166.201 236.831 166.159 236.871 166.068L236.985 165.805C237.025 165.714 236.983 165.608 236.891 165.568Z" fill="white"/>
<path opacity="0.5" d="M243.9 113.796L243.637 113.682C243.546 113.642 243.439 113.684 243.4 113.776L243.286 114.038C243.246 114.13 243.288 114.236 243.38 114.276L243.642 114.39C243.733 114.429 243.84 114.387 243.879 114.296L243.993 114.033C244.033 113.942 243.991 113.836 243.9 113.796Z" fill="white"/>
</g>
<g opacity="0.5">
<path opacity="0.5" d="M236.922 24.5496H236.636C236.536 24.5496 236.456 24.6304 236.456 24.7302V25.0162C236.456 25.1159 236.536 25.1968 236.636 25.1968H236.922C237.022 25.1968 237.103 25.1159 237.103 25.0162V24.7302C237.103 24.6304 237.022 24.5496 236.922 24.5496Z" fill="white"/>
<path opacity="0.5" d="M233.716 69.1328H233.43C233.331 69.1328 233.25 69.2137 233.25 69.3134V69.5994C233.25 69.6992 233.331 69.78 233.43 69.78H233.716C233.816 69.78 233.897 69.6992 233.897 69.5994V69.3134C233.897 69.2137 233.816 69.1328 233.716 69.1328Z" fill="white"/>
<path opacity="0.5" d="M214.633 46.7058H214.347C214.247 46.7058 214.166 46.7867 214.166 46.8864V47.1724C214.166 47.2722 214.247 47.353 214.347 47.353H214.633C214.732 47.353 214.813 47.2722 214.813 47.1724V46.8864C214.813 46.7867 214.732 46.7058 214.633 46.7058Z" fill="white"/>
<path opacity="0.5" d="M199.612 62.6155H199.326C199.227 62.6155 199.146 62.6963 199.146 62.7961V63.0821C199.146 63.1818 199.227 63.2627 199.326 63.2627H199.612C199.712 63.2627 199.793 63.1818 199.793 63.0821V62.7961C199.793 62.6963 199.712 62.6155 199.612 62.6155Z" fill="white"/>
<path opacity="0.5" d="M187.296 34.8032L187.034 34.6894C186.943 34.6496 186.836 34.6916 186.797 34.7831L186.683 35.0455C186.643 35.137 186.685 35.2434 186.777 35.2831L187.039 35.3969C187.13 35.4366 187.237 35.3947 187.276 35.3031L187.39 35.0408C187.43 34.9493 187.388 34.8429 187.296 34.8032Z" fill="white"/>
<path opacity="0.5" d="M182.019 75.4716L181.756 75.3578C181.665 75.3181 181.559 75.3601 181.519 75.4516L181.405 75.7139C181.365 75.8054 181.407 75.9118 181.499 75.9515L181.761 76.0654C181.853 76.1051 181.959 76.0631 181.999 75.9716L182.113 75.7092C182.152 75.6177 182.11 75.5114 182.019 75.4716Z" fill="white"/>
<path opacity="0.5" d="M165.429 36.6993L165.166 36.5854C165.075 36.5456 164.969 36.5876 164.929 36.6791L164.815 36.9414C164.775 37.0329 164.817 37.1393 164.909 37.179L165.171 37.293C165.262 37.3327 165.369 37.2908 165.408 37.1993L165.522 36.937C165.562 36.8455 165.52 36.7391 165.429 36.6993Z" fill="white"/>
<path opacity="0.5" d="M151.12 90.0096L150.849 89.8891C150.828 89.8794 150.808 89.8654 150.791 89.848C150.775 89.8305 150.762 89.81 150.754 89.7876C150.745 89.7652 150.742 89.7414 150.742 89.7174C150.743 89.6935 150.749 89.67 150.759 89.6483L150.864 89.3924C150.874 89.3706 150.888 89.3509 150.906 89.3345C150.923 89.3181 150.944 89.3053 150.966 89.2969C150.988 89.2885 151.012 89.2846 151.036 89.2855C151.06 89.2864 151.084 89.2921 151.105 89.3021L151.376 89.4075C151.398 89.4172 151.418 89.4312 151.434 89.4487C151.45 89.4661 151.463 89.4866 151.472 89.509C151.48 89.5314 151.484 89.5553 151.483 89.5792C151.482 89.6031 151.477 89.6266 151.466 89.6483L151.346 89.9192C151.338 89.9406 151.325 89.96 151.309 89.9762C151.293 89.9925 151.274 90.0053 151.253 90.0138C151.232 90.0223 151.209 90.0263 151.186 90.0255C151.163 90.0248 151.141 90.0194 151.12 90.0096Z" fill="white"/>
<path opacity="0.5" d="M156.282 62.4348L156.012 62.3295C155.99 62.3197 155.97 62.3057 155.954 62.2883C155.937 62.2709 155.925 62.2504 155.916 62.228C155.908 62.2055 155.904 62.1817 155.905 62.1578C155.906 62.1339 155.911 62.1104 155.921 62.0887L156.027 61.8177C156.036 61.7959 156.05 61.7762 156.068 61.7598C156.085 61.7434 156.106 61.7306 156.128 61.7222C156.151 61.7138 156.174 61.7099 156.198 61.7108C156.222 61.7117 156.246 61.7173 156.267 61.7274L156.538 61.8478C156.56 61.856 156.579 61.8685 156.595 61.8845C156.612 61.9005 156.624 61.9197 156.633 61.941C156.641 61.9622 156.645 61.9849 156.645 62.0077C156.644 62.0305 156.638 62.053 156.629 62.0736L156.508 62.3445C156.5 62.3659 156.488 62.3853 156.472 62.4015C156.456 62.4178 156.436 62.4306 156.415 62.4391C156.394 62.4475 156.371 62.4516 156.348 62.4508C156.326 62.4501 156.303 62.4447 156.282 62.4348Z" fill="white"/>
<path opacity="0.5" d="M250.603 49.1441L250.332 49.0236C250.29 49.0012 250.258 48.9644 250.242 48.9202C250.225 48.8759 250.225 48.8271 250.242 48.7828L250.362 48.5269C250.372 48.5051 250.386 48.4854 250.403 48.469C250.421 48.4526 250.441 48.4398 250.464 48.4314C250.486 48.423 250.51 48.4192 250.534 48.42C250.558 48.4209 250.581 48.4266 250.603 48.4366L250.859 48.542C250.881 48.5517 250.9 48.5657 250.917 48.5832C250.933 48.6006 250.946 48.6211 250.954 48.6435C250.963 48.6659 250.967 48.6898 250.966 48.7137C250.965 48.7376 250.959 48.7611 250.949 48.7828L250.844 49.0387C250.821 49.081 250.785 49.1144 250.742 49.1335C250.698 49.1527 250.649 49.1564 250.603 49.1441Z" fill="white"/>
<path opacity="0.5" d="M263.102 76.0417L262.84 75.9279C262.748 75.8881 262.642 75.9301 262.602 76.0216L262.488 76.284C262.449 76.3755 262.491 76.4819 262.582 76.5216L262.845 76.6354C262.936 76.6751 263.042 76.6332 263.082 76.5417L263.196 76.2793C263.236 76.1878 263.194 76.0814 263.102 76.0417Z" fill="white"/>
<path opacity="0.5" d="M291.949 73.4665L291.687 73.3527C291.595 73.313 291.489 73.3549 291.449 73.4464L291.335 73.7088C291.296 73.8003 291.338 73.9067 291.429 73.9464L291.691 74.0603C291.783 74.1 291.889 74.058 291.929 73.9665L292.043 73.7041C292.083 73.6126 292.041 73.5062 291.949 73.4665Z" fill="white"/>
<path opacity="0.5" d="M310.888 65.0416L310.626 64.9277C310.535 64.8879 310.428 64.9299 310.388 65.0214L310.275 65.2837C310.235 65.3752 310.277 65.4816 310.368 65.5213L310.631 65.6353C310.722 65.675 310.828 65.6331 310.868 65.5416L310.982 65.2793C311.022 65.1878 310.98 65.0814 310.888 65.0416Z" fill="white"/>
<path opacity="0.5" d="M184.231 99.8987H183.945C183.845 99.8987 183.764 99.9795 183.764 100.079V100.365C183.764 100.465 183.845 100.546 183.945 100.546H184.231C184.331 100.546 184.412 100.465 184.412 100.365V100.079C184.412 99.9795 184.331 99.8987 184.231 99.8987Z" fill="white"/>
<path opacity="0.5" d="M218.738 77.688L218.476 77.5741C218.384 77.5344 218.278 77.5764 218.238 77.6679L218.124 77.9302C218.085 78.0217 218.127 78.1281 218.218 78.1678L218.481 78.2817C218.572 78.3214 218.678 78.2794 218.718 78.1879L218.832 77.9255C218.872 77.834 218.83 77.7277 218.738 77.688Z" fill="white"/>
<path opacity="0.5" d="M138.207 67.3114L137.951 67.206C137.909 67.1838 137.876 67.1478 137.856 67.1041C137.837 67.0603 137.834 67.0113 137.846 66.9652L137.966 66.6943C137.989 66.6527 138.026 66.6206 138.07 66.604C138.114 66.5874 138.163 66.5874 138.207 66.604L138.463 66.7244C138.484 66.7326 138.504 66.7451 138.52 66.7611C138.536 66.7771 138.549 66.7963 138.557 66.8175C138.566 66.8387 138.57 66.8615 138.569 66.8843C138.568 66.9071 138.563 66.9295 138.553 66.9502L138.448 67.2211C138.438 67.2429 138.424 67.2627 138.407 67.279C138.389 67.2954 138.369 67.3082 138.346 67.3166C138.324 67.325 138.3 67.3289 138.276 67.328C138.252 67.3271 138.229 67.3215 138.207 67.3114Z" fill="white"/>
<path opacity="0.5" d="M197.613 91.5419L197.35 91.4279C197.259 91.3882 197.152 91.4301 197.113 91.5216L196.999 91.7839C196.959 91.8754 197.001 91.9818 197.092 92.0216L197.355 92.1355C197.446 92.1753 197.553 92.1333 197.592 92.0418L197.706 91.7795C197.746 91.688 197.704 91.5816 197.613 91.5419Z" fill="white"/>
<path opacity="0.5" d="M231.248 42.4309L230.992 42.3105C230.971 42.3023 230.952 42.2899 230.935 42.2738C230.919 42.2578 230.906 42.2386 230.898 42.2174C230.889 42.1962 230.885 42.1734 230.886 42.1506C230.887 42.1278 230.892 42.1054 230.902 42.0847L231.007 41.8138C231.017 41.792 231.031 41.7723 231.049 41.7559C231.066 41.7395 231.086 41.7267 231.109 41.7183C231.131 41.7099 231.155 41.706 231.179 41.7069C231.203 41.7078 231.226 41.7134 231.248 41.7235L231.504 41.8289C231.548 41.8488 231.584 41.8844 231.603 41.9289C231.623 41.9735 231.625 42.0236 231.609 42.0697L231.489 42.3406C231.479 42.3625 231.465 42.3822 231.448 42.3986C231.43 42.415 231.41 42.4277 231.387 42.4361C231.365 42.4445 231.341 42.4484 231.317 42.4475C231.293 42.4466 231.27 42.441 231.248 42.4309Z" fill="white"/>
</g>
<path opacity="0.8" d="M257.029 190.179C236.185 202.22 202.397 202.22 181.552 190.179C170.671 183.887 165.478 175.564 165.96 167.33C152.881 142.45 133.903 119.074 99.0161 56.429C156.087 -9.09121 245.862 -23.8419 332.416 45.8928C341.371 53.1026 280.041 151.586 272.622 167.3C273.178 175.564 267.911 183.887 257.029 190.179Z" fill="url(#paint5_linear)"/>
<path d="M115.752 204.493L121.381 201.242V129.159L115.752 132.41V204.493Z" fill="url(#paint6_linear)"/>
<path d="M81.6179 224.211L87.2467 220.945V177.957L81.6179 181.208V224.211Z" fill="url(#paint7_linear)"/>
<path d="M64.5358 234.055L70.1797 230.803V171.605L64.5358 174.856V234.055Z" fill="url(#paint8_linear)"/>
<path d="M47.4838 243.913L53.1126 240.662V172.237L47.4838 175.488V243.913Z" fill="url(#paint9_linear)"/>
<path d="M115.752 204.493L110.108 201.242V129.159L115.752 132.41V204.493Z" fill="url(#paint10_linear)"/>
<path d="M81.6179 224.211L75.974 220.945V177.957L81.6179 181.208V224.211Z" fill="url(#paint11_linear)"/>
<path d="M64.5358 234.055L58.907 230.803V171.605L64.5358 174.856V234.055Z" fill="url(#paint12_linear)"/>
<path d="M47.4838 243.913L41.8399 240.662V172.237L47.4838 175.488V243.913Z" fill="url(#paint13_linear)"/>
<path d="M47.4085 168.971L53.1126 172.237L47.4838 175.488L41.8399 172.237L47.4085 168.971Z" fill="url(#paint14_linear)"/>
<path d="M64.4756 168.354L70.1797 171.62L64.5358 174.871L58.907 171.62L64.4756 168.354Z" fill="url(#paint15_linear)"/>
<path d="M98.6398 214.593L104.269 211.342V152.143L98.6398 155.409V214.593Z" fill="url(#paint16_linear)"/>
<path d="M98.6398 214.593L93.011 211.342V152.143L98.6398 155.409V214.593Z" fill="url(#paint17_linear)"/>
<path d="M98.5645 148.892L104.269 152.158L98.6398 155.409L93.011 152.158L98.5645 148.892Z" fill="url(#paint18_linear)"/>
<path d="M115.677 125.893L121.381 129.159L115.752 132.41L110.108 129.159L115.677 125.893Z" fill="url(#paint19_linear)"/>
<path d="M81.5426 174.691L87.2467 177.972L81.6179 181.223L75.974 177.972L81.5426 174.691Z" fill="url(#paint20_linear)"/>
<path d="M322.95 155.349V196.862C322.995 197.121 322.995 197.386 322.95 197.645C322.803 198.269 322.517 198.852 322.113 199.35C321.709 199.848 321.198 200.248 320.617 200.519C318.852 201.417 316.9 201.885 314.92 201.885C312.941 201.885 310.989 201.417 309.224 200.519C308.647 200.245 308.139 199.844 307.737 199.346C307.336 198.849 307.052 198.267 306.906 197.645V155.349H322.95Z" fill="url(#paint21_linear)"/>
<path d="M320.617 159.338C318.852 160.235 316.9 160.703 314.92 160.703C312.941 160.703 310.989 160.235 309.224 159.338C306.078 157.532 306.078 154.581 309.224 152.76C310.991 151.87 312.942 151.406 314.92 151.406C316.899 151.406 318.85 151.87 320.617 152.76C323.763 154.581 323.763 157.532 320.617 159.338Z" fill="url(#paint22_linear)"/>
<path d="M325.854 167.661H341.958V208.03C341.894 208.736 341.643 209.413 341.23 209.99C340.817 210.566 340.258 211.023 339.61 211.311C337.846 212.209 335.894 212.677 333.914 212.677C331.934 212.677 329.982 212.209 328.217 211.311C327.566 211.026 327.003 210.571 326.587 209.994C326.172 209.417 325.919 208.738 325.854 208.03V167.661Z" fill="url(#paint23_linear)"/>
<path d="M339.565 170.988C337.801 171.885 335.849 172.353 333.869 172.353C331.889 172.353 329.937 171.885 328.172 170.988C325.027 169.182 325.027 166.231 328.172 164.41C329.939 163.52 331.89 163.056 333.869 163.056C335.847 163.056 337.798 163.52 339.565 164.41C342.711 166.292 342.711 169.182 339.565 170.988Z" fill="url(#paint24_linear)"/>
<path d="M344.743 191.488H360.846V219.108C360.836 219.855 360.611 220.583 360.197 221.206C359.783 221.828 359.199 222.317 358.514 222.615C356.747 223.506 354.796 223.97 352.817 223.97C350.838 223.97 348.887 223.506 347.121 222.615C346.434 222.318 345.847 221.829 345.431 221.207C345.015 220.585 344.786 219.856 344.773 219.108L344.743 191.488Z" fill="url(#paint25_linear)"/>
<path d="M358.499 194.604C356.734 195.502 354.782 195.97 352.802 195.97C350.822 195.97 348.87 195.502 347.106 194.604C343.96 192.783 343.96 189.848 347.106 188.027C348.87 187.129 350.822 186.661 352.802 186.661C354.782 186.661 356.734 187.129 358.499 188.027C361.644 189.848 361.644 192.783 358.499 194.604Z" fill="url(#paint26_linear)"/>
<path d="M364.082 212.847H380.186V229.509C380.174 230.256 379.945 230.983 379.529 231.602C379.112 232.222 378.525 232.708 377.838 233.001C376.074 233.899 374.122 234.366 372.142 234.366C370.162 234.366 368.21 233.899 366.445 233.001C365.761 232.705 365.177 232.219 364.764 231.599C364.35 230.98 364.124 230.254 364.112 229.509L364.082 212.847Z" fill="url(#paint27_linear)"/>
<path d="M377.823 215.962C376.059 216.86 374.107 217.328 372.127 217.328C370.147 217.328 368.195 216.86 366.43 215.962C363.285 214.156 363.285 211.206 366.43 209.385C368.197 208.494 370.148 208.03 372.127 208.03C374.105 208.03 376.056 208.494 377.823 209.385C380.969 211.206 380.969 214.156 377.823 215.962Z" fill="url(#paint28_linear)"/>
<path style="mix-blend-mode:multiply" opacity="0.04" d="M397.776 363.812C383.659 370.826 360.782 370.826 346.605 363.812C332.427 356.798 332.503 345.419 346.605 338.405C360.707 331.391 383.599 331.391 397.776 338.405C411.953 345.419 411.878 356.798 397.776 363.812Z" fill="url(#paint29_radial)"/>
<path d="M396.045 341.294V347.797C396.045 351.259 393.757 354.721 389.182 357.355C380.032 362.638 365.192 362.638 356.071 357.355C351.556 354.721 349.208 351.259 349.208 347.797V340.903" stroke="#FF4B36" stroke-width="0.19" stroke-miterlimit="10"/>
<path d="M350.683 346.773V352.508C350.916 352.881 351.172 353.238 351.451 353.577V346.728L350.683 346.773Z" fill="#FF4B36"/>
<path d="M353.362 349.558V355.488L354.145 356.105V349.528L353.362 349.558Z" fill="#FF4B36"/>
<path d="M356.056 351.334V357.355L356.839 357.761V351.289L356.056 351.334Z" fill="#FF4B36"/>
<path d="M358.75 352.734V358.679L359.533 359.01V352.704L358.75 352.734Z" fill="#FF4B36"/>
<path d="M361.444 353.592V359.612L362.227 359.853V353.592H361.444Z" fill="#FF4B36"/>
<path d="M364.093 354.284V360.395L364.876 360.561V354.239L364.093 354.284Z" fill="#FF4B36"/>
<path d="M367.54 354.901H366.833V360.922L367.615 361.027V355.006L367.54 354.901Z" fill="#FF4B36"/>
<path d="M369.526 354.901V361.193H370.309V354.841L369.526 354.901Z" fill="#FF4B36"/>
<path d="M372.22 354.901V361.313H373.003V354.901H372.22Z" fill="#FF4B36"/>
<path d="M374.915 354.901V361.253H375.697V354.961L374.915 354.901Z" fill="#FF4B36"/>
<path d="M377.639 354.901V360.922L378.421 360.817V354.796L377.639 354.901Z" fill="#FF4B36"/>
<path d="M380.302 354.254V360.561L381.085 360.395V354.254H380.302Z" fill="#FF4B36"/>
<path d="M382.997 353.592V359.929L383.779 359.688V353.667L382.997 353.592Z" fill="#FF4B36"/>
<path d="M385.691 352.418V359.01L386.473 358.679V352.418H385.691Z" fill="#FF4B36"/>
<path d="M388.385 351.379V357.776L389.167 357.37V351.349L388.385 351.379Z" fill="#FF4B36"/>
<path d="M391.079 349.543V356.105L391.861 355.488V349.543H391.079Z" fill="#FF4B36"/>
<path d="M393.773 346.743V353.592C394.052 353.249 394.313 352.892 394.555 352.523V346.758L393.773 346.743Z" fill="#FF4B36"/>
<path d="M389.182 351.093C380.032 356.376 365.192 356.376 356.072 351.093C346.951 345.81 346.921 337.246 356.072 331.962C365.222 326.679 380.062 326.679 389.182 331.962C398.303 337.246 398.333 345.81 389.182 351.093Z" stroke="#FF4B36" stroke-width="0.19" stroke-miterlimit="10"/>
<path d="M387.09 349.257C379.098 353.863 366.14 353.863 358.148 349.257C350.157 344.651 350.157 337.215 358.148 332.549C366.14 327.883 379.144 328.004 387.09 332.519C395.037 337.035 395.082 344.636 387.09 349.257Z" stroke="#FF4B36" stroke-width="0.19" stroke-miterlimit="10"/>
<path d="M370.113 333.558L367.103 331.857L364.394 333.362L367.103 334.867L364.394 336.372L361.685 334.867L358.976 336.372L361.685 337.878L358.976 339.383L372.521 347.21L375.231 345.705L377.94 347.21L380.664 345.705L377.94 344.199L380.664 342.694L383.373 344.199L386.082 342.694L383.072 340.978C383.273 340.764 383.427 340.511 383.526 340.234C383.624 339.958 383.664 339.664 383.643 339.371C383.621 339.078 383.54 338.793 383.402 338.533C383.265 338.274 383.076 338.045 382.846 337.863C381.534 336.795 379.887 336.224 378.195 336.252C378.195 335.153 377.067 334.145 375.426 333.573C373.693 333.059 371.849 333.054 370.113 333.558V333.558ZM364.439 339.684L371.212 335.77C371.632 335.559 372.096 335.448 372.567 335.448C373.037 335.448 373.501 335.559 373.921 335.77C374.674 336.192 374.674 336.899 373.921 337.276L367.149 341.189L364.439 339.684ZM379.339 340.467L372.567 344.38L369.858 342.875L376.63 338.961C377.05 338.75 377.514 338.639 377.985 338.639C378.455 338.639 378.919 338.75 379.339 338.961C380.137 339.323 380.137 340.045 379.384 340.467H379.339Z" stroke="#FF4B36" stroke-width="0.19" stroke-miterlimit="10"/>
<defs>
<radialGradient id="paint0_radial" cx="0" cy="0" r="1" gradientUnits="userSpaceOnUse" gradientTransform="translate(32801.7 1856.2) scale(1424.64 606.142)">
<stop stop-color="#2F3C9E"/>
<stop offset="0.12" stop-color="#253184"/>
<stop offset="0.3" stop-color="#192364"/>
<stop offset="0.47" stop-color="#11194D"/>
<stop offset="0.63" stop-color="#0C1340"/>
<stop offset="0.78" stop-color="#0A113B"/>
<stop offset="1" stop-color="#000020"/>
</radialGradient>
<linearGradient id="paint1_linear" x1="116" y1="275" x2="341" y2="286" gradientUnits="userSpaceOnUse">
<stop stop-color="#111464"/>
<stop offset="0.427083" stop-color="#4247BF"/>
<stop offset="1" stop-color="#111464"/>
</linearGradient>
<radialGradient id="paint2_radial" cx="0" cy="0" r="1" gradientUnits="userSpaceOnUse" gradientTransform="translate(79152.4 19060.3) scale(5794.19 2371.46)">
<stop stop-color="#2F3C9E"/>
<stop offset="0.12" stop-color="#253184"/>
<stop offset="0.3" stop-color="#192364"/>
<stop offset="0.47" stop-color="#11194D"/>
<stop offset="0.63" stop-color="#0C1340"/>
<stop offset="0.78" stop-color="#0A113B"/>
<stop offset="1" stop-color="#000020"/>
</radialGradient>
<radialGradient id="paint3_radial" cx="0" cy="0" r="1" gradientUnits="userSpaceOnUse" gradientTransform="translate(67273.5 16119.8) scale(4107.87 1681.84)">
<stop stop-color="#2F3C9E"/>
<stop offset="0.12" stop-color="#253184"/>
<stop offset="0.3" stop-color="#192364"/>
<stop offset="0.47" stop-color="#11194D"/>
<stop offset="0.63" stop-color="#0C1340"/>
<stop offset="0.78" stop-color="#0A113B"/>
<stop offset="1" stop-color="#000020"/>
</radialGradient>
<linearGradient id="paint4_linear" x1="48979.1" y1="12466.5" x2="48979.1" y2="13877.1" gradientUnits="userSpaceOnUse">
<stop offset="0.09" stop-color="#84E4A4"/>
<stop offset="0.97" stop-color="#3C53D7"/>
</linearGradient>
<linearGradient id="paint5_linear" x1="214.241" y1="16.7827" x2="224.718" y2="210.589" gradientUnits="userSpaceOnUse">
<stop stop-color="#F1EBF9" stop-opacity="0"/>
<stop offset="0.28" stop-color="#F3EFFA" stop-opacity="0"/>
<stop offset="0.3" stop-color="#F3F0FA" stop-opacity="0"/>
<stop offset="0.38" stop-color="#F1F3FB" stop-opacity="0.04"/>
<stop offset="0.5" stop-color="#FFE3C1" stop-opacity="0.13"/>
<stop offset="0.57" stop-color="#FFE3C1" stop-opacity="0.2"/>
<stop offset="0.64" stop-color="#FFE3C1" stop-opacity="0.3"/>
<stop offset="0.78" stop-color="#FFE3C1" stop-opacity="0.56"/>
<stop offset="0.880208" stop-color="#FFE3C1"/>
<stop offset="0.98" stop-color="#FFE3C1" stop-opacity="0.96"/>
</linearGradient>
<linearGradient id="paint6_linear" x1="119.497" y1="208.866" x2="69.863" y2="122.511" gradientUnits="userSpaceOnUse">
<stop stop-color="#1A1B6E"/>
<stop offset="0.46" stop-color="#3C53D7"/>
<stop offset="0.69" stop-color="#65A3FB"/>
</linearGradient>
<linearGradient id="paint7_linear" x1="801.487" y1="-19807.9" x2="801.487" y2="-22220.1" gradientUnits="userSpaceOnUse">
<stop stop-color="#1A1B6E"/>
<stop offset="0.46" stop-color="#3C53D7"/>
<stop offset="0.69" stop-color="#65A3FB"/>
</linearGradient>
<linearGradient id="paint8_linear" x1="712.453" y1="-26789.8" x2="712.453" y2="-30934.6" gradientUnits="userSpaceOnUse">
<stop stop-color="#1A1B6E"/>
<stop offset="0.46" stop-color="#3C53D7"/>
<stop offset="0.69" stop-color="#65A3FB"/>
</linearGradient>
<linearGradient id="paint9_linear" x1="619.935" y1="-30789.8" x2="619.935" y2="-34859.6" gradientUnits="userSpaceOnUse">
<stop stop-color="#1A1B6E"/>
<stop offset="0.46" stop-color="#3C53D7"/>
<stop offset="0.69" stop-color="#65A3FB"/>
</linearGradient>
<linearGradient id="paint10_linear" x1="-13126.2" y1="84400.3" x2="-10642" y2="80078.2" gradientUnits="userSpaceOnUse">
<stop stop-color="#1A1B6E"/>
<stop offset="0.46" stop-color="#3C53D7"/>
<stop offset="0.69" stop-color="#65A3FB"/>
</linearGradient>
<linearGradient id="paint11_linear" x1="-13225.1" y1="49487.2" x2="-12026.7" y2="47402.1" gradientUnits="userSpaceOnUse">
<stop stop-color="#1A1B6E"/>
<stop offset="0.46" stop-color="#3C53D7"/>
<stop offset="0.69" stop-color="#65A3FB"/>
</linearGradient>
<linearGradient id="paint12_linear" x1="-13226.4" y1="70840.3" x2="-11167" y2="67257.4" gradientUnits="userSpaceOnUse">
<stop stop-color="#1A1B6E"/>
<stop offset="0.46" stop-color="#3C53D7"/>
<stop offset="0.69" stop-color="#65A3FB"/>
</linearGradient>
<linearGradient id="paint13_linear" x1="218.493" y1="11029.1" x2="-1587.89" y2="9870.82" gradientUnits="userSpaceOnUse">
<stop stop-color="#1A1B6E"/>
<stop offset="0.46" stop-color="#3C53D7"/>
<stop offset="0.69" stop-color="#65A3FB"/>
</linearGradient>
<linearGradient id="paint14_linear" x1="3508.93" y1="1241.67" x2="3587.01" y2="1177.34" gradientUnits="userSpaceOnUse">
<stop stop-color="#1A1B6E"/>
<stop offset="0.46" stop-color="#3C53D7"/>
<stop offset="0.69" stop-color="#65A3FB"/>
</linearGradient>
<linearGradient id="paint15_linear" x1="3653.81" y1="1237.98" x2="3795.24" y2="1121.51" gradientUnits="userSpaceOnUse">
<stop stop-color="#1A1B6E"/>
<stop offset="0.46" stop-color="#3C53D7"/>
<stop offset="0.69" stop-color="#65A3FB"/>
</linearGradient>
<linearGradient id="paint16_linear" x1="892.076" y1="-26801.1" x2="892.076" y2="-30945.9" gradientUnits="userSpaceOnUse">
<stop stop-color="#1A1B6E"/>
<stop offset="0.46" stop-color="#3C53D7"/>
<stop offset="0.69" stop-color="#65A3FB"/>
</linearGradient>
<linearGradient id="paint17_linear" x1="-13127.9" y1="69257.2" x2="-11068.3" y2="65673.8" gradientUnits="userSpaceOnUse">
<stop stop-color="#1A1B6E"/>
<stop offset="0.46" stop-color="#3C53D7"/>
<stop offset="0.69" stop-color="#65A3FB"/>
</linearGradient>
<linearGradient id="paint18_linear" x1="3938.59" y1="1133.54" x2="4079.86" y2="1017.29" gradientUnits="userSpaceOnUse">
<stop stop-color="#1A1B6E"/>
<stop offset="0.46" stop-color="#3C53D7"/>
<stop offset="0.69" stop-color="#65A3FB"/>
</linearGradient>
<linearGradient id="paint19_linear" x1="4090.9" y1="1010.53" x2="4232.13" y2="894.013" gradientUnits="userSpaceOnUse">
<stop stop-color="#1A1B6E"/>
<stop offset="0.46" stop-color="#3C53D7"/>
<stop offset="0.69" stop-color="#65A3FB"/>
</linearGradient>
<linearGradient id="paint20_linear" x1="3814.15" y1="1269.87" x2="3873.02" y2="1221.44" gradientUnits="userSpaceOnUse">
<stop stop-color="#1A1B6E"/>
<stop offset="0.46" stop-color="#3C53D7"/>
<stop offset="0.69" stop-color="#65A3FB"/>
</linearGradient>
<linearGradient id="paint21_linear" x1="8663.11" y1="10703.1" x2="8663.11" y2="9263.77" gradientUnits="userSpaceOnUse">
<stop stop-color="#1A1B6E"/>
<stop offset="0.46" stop-color="#3C53D7"/>
<stop offset="0.69" stop-color="#65A3FB"/>
</linearGradient>
<linearGradient id="paint22_linear" x1="-4662" y1="2003.37" x2="-4607.27" y2="1813.69" gradientUnits="userSpaceOnUse">
<stop stop-color="#1A1B6E"/>
<stop offset="0.46" stop-color="#3C53D7"/>
<stop offset="0.69" stop-color="#65A3FB"/>
</linearGradient>
<linearGradient id="paint23_linear" x1="8898.26" y1="10693.2" x2="8898.26" y2="9346.76" gradientUnits="userSpaceOnUse">
<stop stop-color="#1A1B6E"/>
<stop offset="0.46" stop-color="#3C53D7"/>
<stop offset="0.69" stop-color="#65A3FB"/>
</linearGradient>
<linearGradient id="paint24_linear" x1="-4479.88" y1="2094.61" x2="-4445.72" y2="1953.52" gradientUnits="userSpaceOnUse">
<stop stop-color="#1A1B6E"/>
<stop offset="0.46" stop-color="#3C53D7"/>
<stop offset="0.69" stop-color="#65A3FB"/>
</linearGradient>
<linearGradient id="paint25_linear" x1="9119.75" y1="8029.92" x2="9119.75" y2="7328.97" gradientUnits="userSpaceOnUse">
<stop stop-color="#1A1B6E"/>
<stop offset="0.46" stop-color="#3C53D7"/>
<stop offset="0.69" stop-color="#65A3FB"/>
</linearGradient>
<linearGradient id="paint26_linear" x1="-4292.57" y1="2278.63" x2="-4262.44" y2="2085.66" gradientUnits="userSpaceOnUse">
<stop stop-color="#1A1B6E"/>
<stop offset="0.46" stop-color="#3C53D7"/>
<stop offset="0.69" stop-color="#65A3FB"/>
</linearGradient>
<linearGradient id="paint27_linear" x1="9345.99" y1="5555.32" x2="9345.99" y2="5246.95" gradientUnits="userSpaceOnUse">
<stop stop-color="#1A1B6E"/>
<stop offset="0.46" stop-color="#3C53D7"/>
<stop offset="0.69" stop-color="#65A3FB"/>
</linearGradient>
<linearGradient id="paint28_linear" x1="-4104.87" y1="2429.47" x2="-4074.8" y2="2236.72" gradientUnits="userSpaceOnUse">
<stop stop-color="#1A1B6E"/>
<stop offset="0.46" stop-color="#3C53D7"/>
<stop offset="0.69" stop-color="#65A3FB"/>
</linearGradient>
<radialGradient id="paint29_radial" cx="0" cy="0" r="1" gradientUnits="userSpaceOnUse" gradientTransform="translate(33095.8 2091.67) scale(1424.64 606.142)">
<stop stop-color="#2F3C9E"/>
<stop offset="0.12" stop-color="#253184"/>
<stop offset="0.3" stop-color="#192364"/>
<stop offset="0.47" stop-color="#11194D"/>
<stop offset="0.63" stop-color="#0C1340"/>
<stop offset="0.78" stop-color="#0A113B"/>
<stop offset="1" stop-color="#000020"/>
</radialGradient>
</defs>
</svg>
